<?xml version="1.0" encoding="utf-8"?>
<!-- Generator: Adobe Illustrator 17.0.0, SVG Export Plug-In . SVG Version: 6.00 Build 0)  -->
<!DOCTYPE svg PUBLIC "-//W3C//DTD SVG 1.1//EN" "http://www.w3.org/Graphics/SVG/1.1/DTD/svg11.dtd">
<svg version="1.1" id="Ebene_1" xmlns="http://www.w3.org/2000/svg" xmlns:xlink="http://www.w3.org/1999/xlink" x="0px" y="0px"
	 width="3600px" height="1800px" viewBox="0 0 3600 1800" enable-background="new 0 0 3600 1800" xml:space="preserve">
<polygon fill="#FFFFFF" points="1155.619,1699.719 1177.946,1699.132 1198.903,1700.503 1201.842,1695.996 1204.779,1690.902 
	1194.399,1686.786 1189.11,1690.314 1181.667,1694.429 1160.123,1693.449 1137.6,1693.057 1143.083,1695.996 1143.083,1696.388 "/>
<polygon fill="#FFFFFF" points="188.049,1674.302 169.442,1672.733 163.371,1676.457 169.834,1679.2 170.226,1679.787 
	176.102,1683.315 189.224,1686.842 208.418,1685.47 205.676,1680.963 198.038,1677.436 "/>
<polygon fill="#FFFFFF" points="1361.292,1675.281 1348.952,1670.971 1333.872,1668.815 1318.986,1670.971 1313.894,1670.97 
	1307.43,1675.086 1301.359,1678.612 1296.854,1682.335 1290.587,1686.646 1281.969,1689.977 1260.62,1692.72 1258.857,1696.835 
	1271.98,1700.167 1295.679,1700.754 1316.636,1698.795 1335.438,1696.443 1351.695,1693.896 1367.167,1690.761 1366.776,1685.666 
	1365.601,1681.355 "/>
<polygon fill="#FFFFFF" points="588.385,1625.51 576.438,1623.746 574.283,1627.078 584.272,1630.605 598.178,1631.388 
	607.579,1628.841 613.259,1625.313 601.312,1627.077 "/>
<polygon fill="#FFFFFF" points="554.305,1628.841 560.181,1629.233 544.904,1625.313 534.915,1622.962 527.669,1625.118 
	541.378,1627.861 "/>
<polygon fill="#FFFFFF" points="821.653,1611.205 810.685,1609.833 796.191,1609.05 783.46,1607.678 777.193,1609.442 
	782.481,1613.557 792.666,1615.516 806.18,1614.928 818.519,1615.32 830.662,1614.928 838.497,1615.712 832.621,1610.03 "/>
<polygon fill="#FFFFFF" points="1089.741,1615.538 1100.905,1613.579 1112.657,1612.207 1115.399,1608.484 1117.162,1604.565 
	1115.987,1600.058 1113.245,1595.551 1109.915,1591.24 1105.606,1586.733 1103.255,1583.01 1097.968,1579.287 1088.762,1580.855 
	1083.082,1585.558 1083.278,1593.592 1082.69,1597.315 1079.753,1602.409 1068.197,1602.018 1061.342,1603.193 1050.374,1607.112 
	1050.961,1611.227 1058.6,1614.167 1069.764,1612.795 1081.515,1611.423 1076.619,1615.342 "/>
<polygon fill="#FFFFFF" points="158.679,1738.752 181.202,1741.887 219.786,1744.239 248.577,1741.495 291.079,1743.455 
	315.169,1746.59 341.611,1743.651 369.423,1740.907 370.889,1737.706 147.073,1737.711 "/>
<polygon fill="#FFFFFF" points="3583.272,1735.225 3560.357,1732.09 3532.741,1734.637 3525.271,1731.679 3523.339,1730.914 
	3494.548,1728.759 3489.457,1723.86 3466.541,1720.724 3451.459,1717.589 3437.553,1714.454 3425.41,1711.123 3416.793,1707.4 
	3411.7,1703.285 3398.382,1699.954 3403.67,1696.231 3407.979,1692.507 3409.742,1687.805 3418.164,1682.122 3437.162,1681.73 
	3452.439,1679.575 3470.458,1678.007 3466.541,1673.696 3447.935,1672.325 3443.234,1668.797 3441.079,1665.074 3435.399,1661.156 
	3435.203,1657.433 3436.182,1652.926 3438.728,1649.203 3442.842,1645.088 3450.089,1641.953 3456.944,1638.229 3461.448,1634.31 
	3474.375,1632.155 3480.251,1628.628 3493.373,1627.06 3498.074,1622.945 3501.6,1619.418 3506.104,1614.911 3511.392,1611.384 
	3512.568,1607.465 3505.517,1604.526 3495.136,1602.567 3484.756,1600.215 3473.591,1598.843 3461.644,1598.059 3449.697,1598.255 
	3438.924,1597.668 3427.369,1597.863 3416.205,1596.296 3408.566,1592.769 3397.207,1590.417 3392.31,1586.498 3380.755,1585.323 
	3368.611,1584.343 3359.798,1581.992 3352.159,1578.856 3343.346,1576.113 3336.882,1579.445 3325.522,1579.248 3315.337,1577.681 
	3301.823,1576.113 3288.896,1574.35 3277.733,1571.802 3266.961,1569.451 3260.497,1566.512 3262.456,1562.789 3255.404,1559.653 
	3244.241,1558.87 3231.118,1558.478 3221.717,1558.674 3208.594,1558.674 3199.584,1559.261 3186.462,1559.458 3175.103,1560.046 
	3166.68,1558.282 3162.567,1554.951 3159.238,1550.836 3157.475,1546.329 3151.208,1543.586 3150.816,1547.701 3148.074,1552.599 
	3139.065,1553.383 3129.859,1554.363 3118.5,1554.363 3108.314,1554.755 3097.542,1556.322 3088.533,1558.086 3079.328,1557.106 
	3070.514,1556.126 3061.504,1556.126 3052.103,1557.694 3041.723,1556.714 3032.713,1555.343 3023.704,1556.126 3017.044,1559.261 
	3009.21,1562.397 2998.829,1563.181 2986.295,1562.201 2974.347,1559.653 2967.492,1557.106 2956.524,1557.498 2949.473,1554.363 
	2944.381,1551.228 2936.547,1549.268 2929.104,1551.423 2917.94,1551.816 2911.085,1554.755 2902.858,1557.498 2892.086,1558.87 
	2881.314,1560.046 2872.109,1560.046 2862.316,1559.849 2849.584,1553.775 2842.926,1550.248 2835.287,1547.505 2828.824,1546.133 
	2816.289,1553.579 2809.434,1556.322 2804.342,1559.653 2797.682,1562.985 2787.302,1561.613 2778.096,1562.985 2767.324,1562.985 
	2758.315,1564.356 2750.676,1562.201 2742.254,1561.613 2735.986,1562.593 2726.585,1562.397 2716.401,1561.613 2706.804,1562.789 
	2697.206,1562.005 2688.784,1560.046 2684.084,1555.343 2680.363,1552.599 2675.27,1559.261 2668.024,1562.005 2657.055,1561.417 
	2647.262,1562.593 2638.253,1563.573 2628.264,1562.593 2621.018,1564.161 2615.338,1565.924 2609.854,1569.255 2601.431,1571.215 
	2591.639,1573.762 2584.784,1577.484 2581.845,1581.208 2576.949,1585.127 2566.765,1586.694 2556.776,1587.87 2545.416,1588.262 
	2539.149,1589.242 2533.86,1594.14 2531.314,1597.668 2525.046,1600.607 2519.563,1603.742 2516.233,1607.465 2510.749,1611.384 
	2499.193,1613.148 2487.638,1612.168 2479.999,1609.033 2484.7,1604.918 2489.792,1601.194 2491.163,1597.275 2479.999,1597.472 
	2478.627,1593.553 2486.463,1589.829 2496.059,1587.282 2497.235,1582.775 2497.626,1580.228 2489.4,1569.843 2479.411,1569.843 
	2469.619,1569.059 2460.217,1567.883 2450.425,1566.707 2441.023,1564.552 2432.405,1568.667 2424.375,1570.627 2414.778,1570.039 
	2406.552,1567.296 2399.893,1564.552 2387.945,1563.377 2381.874,1560.633 2373.06,1557.302 2372.081,1552.991 2364.05,1550.248 
	2354.649,1549.268 2345.835,1548.68 2336.63,1549.464 2326.641,1551.031 2318.416,1552.991 2309.993,1555.735 2308.035,1559.261 
	2299.809,1561.613 2290.407,1561.417 2283.944,1564.161 2274.934,1567.687 2265.533,1566.512 2257.699,1568.667 2249.473,1571.019 
	2241.639,1573.174 2229.887,1575.133 2220.094,1576.505 2209.714,1579.836 2200.704,1581.599 2197.179,1585.911 2186.994,1588.262 
	2179.551,1585.714 2172.5,1582.187 2162.12,1582.971 2153.502,1580.62 2149.585,1577.093 2139.204,1575.526 2133.524,1578.856 
	2128.041,1584.343 2120.402,1587.086 2110.217,1588.066 2100.816,1589.829 2092.002,1592.573 2081.426,1593.748 2071.437,1595.12 
	2060.273,1595.316 2048.914,1595.316 2037.162,1595.708 2026.194,1597.472 2019.73,1594.532 2015.03,1591.201 2004.258,1590.613 
	1993.094,1589.438 1982.517,1589.242 1970.766,1589.633 1959.993,1590.809 1951.768,1594.532 1947.85,1590.809 1934.728,1590.222 
	1924.543,1592.965 1920.038,1596.884 1908.678,1598.843 1902.998,1595.316 1895.751,1590.613 1885.371,1591.985 1877.929,1589.438 
	1871.857,1592.965 1863.239,1595.12 1852.075,1596.688 1841.89,1599.039 1830.726,1600.411 1819.367,1601.783 1809.182,1603.546 
	1798.214,1606.877 1793.905,1602.762 1782.545,1602.174 1770.01,1603.35 1757.083,1605.114 1745.136,1604.526 1742.59,1600.803 
	1731.818,1599.823 1726.725,1603.742 1726.334,1607.465 1714.386,1607.073 1709.49,1603.742 1697.542,1603.154 1690.296,1605.898 
	1685.399,1610.601 1677.565,1614.519 1667.38,1617.654 1656.412,1620.006 1646.031,1621.965 1639.372,1625.101 1635.847,1629.216 
	1646.423,1631.567 1643.485,1635.486 1634.084,1638.425 1625.27,1641.757 1611.365,1644.892 1600.396,1647.243 1588.253,1649.595 
	1575.914,1651.554 1561.224,1652.926 1545.752,1653.318 1538.896,1654.101 1525.382,1655.473 1511.672,1657.237 1502.663,1661.156 
	1490.52,1664.095 1478.376,1667.034 1461.532,1669.385 1447.234,1671.736 1442.73,1673.892 1441.359,1681.338 1444.101,1685.061 
	1463.687,1685.061 1484.252,1683.494 1503.642,1683.102 1503.642,1686.825 1507.951,1690.352 1515.002,1693.879 1499.529,1696.426 
	1477.397,1698.19 1456.636,1699.562 1437.833,1701.717 1418.052,1703.873 1392.786,1704.069 1378.88,1707.008 1372.416,1711.319 
	1352.243,1708.967 1327.761,1707.596 1302.886,1707.792 1285.063,1710.535 1264.302,1713.082 1246.871,1716.217 1230.419,1719.157 
	1218.275,1722.684 1213.379,1718.961 1203.586,1714.258 1184.98,1710.927 1167.94,1707.987 1143.457,1705.245 1118.583,1703.677 
	1100.368,1700.541 1086.071,1697.406 1068.052,1694.663 1046.899,1693.095 1034.168,1689.372 1032.014,1685.649 1020.262,1682.318 
	1020.653,1678.399 1021.242,1674.284 1035.539,1671.736 1052.775,1672.716 1063.939,1669.581 1057.671,1666.054 1046.507,1663.311 
	1031.23,1661.548 1028.096,1657.629 1044.94,1657.629 1060.805,1656.845 1078.432,1657.237 1094.493,1656.845 1102.523,1652.73 
	1116.037,1650.574 1128.572,1648.419 1141.89,1646.851 1156.972,1643.128 1163.043,1639.797 1167.548,1636.27 1180.866,1634.898 
	1186.742,1631.567 1192.226,1627.452 1193.597,1622.161 1190.463,1618.243 1189.68,1614.323 1186.742,1610.601 1185.371,1601.39 
	1182.433,1597.668 1177.733,1594.337 1174.795,1590.417 1172.64,1586.694 1168.527,1582.775 1160.889,1579.64 1152.663,1577.289 
	1147.375,1574.153 1143.849,1570.039 1145.416,1566.316 1151.683,1562.005 1157.559,1558.87 1163.043,1555.538 1172.444,1554.755 
	1179.299,1552.403 1174.599,1549.072 1174.011,1545.349 1175.382,1541.43 1180.279,1538.491 1187.526,1535.943 1194.381,1533.592 
	1202.606,1532.612 1210.049,1534.18 1214.358,1532.025 1224.543,1529.085 1228.264,1525.754 1222.388,1523.206 1214.554,1524.382 
	1208.874,1527.517 1201.627,1530.065 1193.401,1531.24 1186.351,1533.2 1180.083,1536.335 1170.486,1536.923 1164.219,1539.471 
	1158.735,1542.214 1154.817,1546.525 1146.787,1549.464 1139.932,1552.599 1133.468,1556.322 1127.984,1559.261 1123.088,1563.768 
	1124.263,1567.687 1126.221,1571.998 1124.655,1575.917 1120.738,1580.032 1116.037,1583.755 1115.058,1587.674 1115.646,1591.593 
	1118.191,1595.12 1121.325,1599.039 1124.851,1602.958 1127.984,1606.877 1129.16,1610.992 1126.809,1615.303 1120.934,1618.438 
	1111.141,1620.594 1098.409,1621.965 1084.308,1623.141 1072.165,1624.513 1061.98,1627.06 1051.599,1629.216 1038.281,1630.195 
	1031.426,1626.864 1021.242,1624.709 1007.531,1625.689 997.542,1621.769 993.625,1625.297 985.791,1629.02 973.844,1626.864 
	961.7,1625.689 948.578,1625.297 940.352,1621.378 927.817,1622.358 916.261,1620.594 908.23,1616.087 899.613,1623.729 
	886.294,1624.513 876.11,1622.161 863.771,1623.337 850.06,1625.297 837.134,1626.668 823.62,1626.08 819.311,1622.553 
	809.126,1619.614 797.375,1618.047 784.448,1618.634 771.325,1618.047 763.687,1616.675 767.212,1624.121 769.367,1627.844 
	775.047,1631.567 787.973,1632.351 792.87,1635.878 799.333,1639.209 794.045,1643.52 780.335,1641.757 766.821,1640.385 
	751.739,1639.993 739.009,1641.757 724.906,1642.344 713.351,1639.601 699.837,1638.425 687.889,1634.703 677.509,1637.642 
	671.045,1634.31 667.52,1630.783 661.057,1627.648 650.284,1631.175 638.337,1632.939 625.802,1630.783 613.659,1632.351 
	603.474,1635.29 589.764,1635.682 574.878,1635.486 560.385,1635.29 546.479,1635.682 531.594,1634.703 518.08,1633.723 
	504.957,1635.094 491.247,1635.29 477.928,1633.527 463.044,1634.898 456.188,1634.114 448.354,1633.527 436.211,1635.682 
	425.438,1637.838 411.924,1640.189 398.41,1641.169 384.112,1641.365 372.556,1643.912 357.28,1645.872 351.404,1642.54 
	338.477,1644.304 335.539,1647.831 339.065,1651.554 339.456,1655.277 324.375,1656.257 313.015,1659.588 300.481,1662.331 
	287.162,1664.487 271.298,1665.467 263.072,1661.156 247.206,1662.527 230.754,1663.507 221.745,1660.372 216.849,1659.392 
	219.982,1670.757 227.817,1674.284 240.743,1677.419 247.206,1681.143 266.597,1682.122 284.616,1683.494 305.181,1684.082 
	319.871,1687.021 332.797,1689.764 336.323,1693.879 328.293,1697.21 311.84,1700.933 294.017,1703.873 279.523,1700.541 
	256.412,1702.109 232.125,1701.521 247.598,1704.656 255.237,1708.184 271.885,1710.927 273.844,1715.042 270.122,1718.765 
	266.401,1722.88 264.638,1727.387 291.471,1729.542 299.893,1733.461 332.209,1735.813 371.577,1736.205 370.889,1737.706 
	3600.5,1737.634 "/>
<polygon fill="#FFFFFF" points="115.198,1732.874 110.5,1731.679 100.988,1729.346 71.609,1731.11 69.334,1731.679 56.675,1735.843 
	42.201,1731.679 41.028,1731.604 39.653,1731.493 29.092,1734.679 27.932,1735.029 9.913,1731.894 1.075,1737.714 147.073,1737.711 
	130.279,1736.205 "/>
<polygon fill="#FFFFFF" points="2506.1,1383.05 2505.75,1381.15 2496.3,1379.9 2489.85,1376.75 2489.175,1378.8 2487.7,1382.925 
	2487.95,1388.25 2503.3,1387.6 "/>
<polygon fill="#FFFFFF" points="3277.393,1298.582 3269.586,1300.505 3264.141,1301.877 3254.48,1298.425 3247.938,1297.54 
	3247.681,1302.125 3253.451,1310.836 3254.819,1317.438 3260.984,1325.997 3267.133,1326.308 3269.203,1326.846 3276.146,1319.877 
	3279.641,1322.615 3280.673,1314.57 3284.099,1311.124 3283.391,1299.254 "/>
<polygon fill="#FFFFFF" points="3066.326,1030.028 3061.928,1031.46 3061.751,1033.973 3057.358,1032.806 3057.201,1035.601 
	3052.173,1037.304 3049.761,1041.251 3044.297,1046.171 3043.083,1053.779 3038.671,1051.613 3035.532,1056.465 3039.094,1061.19 
	3034.838,1063.185 3030.626,1054.552 3023.628,1063.05 3023.366,1068.486 3022.917,1072.476 3017.051,1077.553 3014.499,1082.897 
	3009.062,1087.337 2998.552,1090.265 2993.025,1090.029 2990.378,1090.942 2988.861,1093.133 2982.796,1094.242 2974.916,1097.969 
	2972.163,1096.736 2967.616,1097.517 2959.974,1101.187 2955.102,1105.452 2946.978,1108.795 2942.753,1115.675 2941.998,1108.059 
	2937.865,1115.255 2938.934,1121.1 2937.57,1126.102 2935.521,1128.563 2934.435,1134.348 2936.753,1137.34 2937.713,1140.489 
	2942.662,1148.363 2942.829,1153.484 2939.869,1149.612 2934.91,1146.713 2938.284,1155.99 2933.89,1151.665 2935.275,1155.931 
	2940.989,1163.848 2942.236,1171.681 2946.665,1175.664 2946.92,1178.602 2950.9,1185.111 2950.47,1190.807 2952.109,1196.516 
	2957.396,1206.624 2958.516,1212.551 2957.294,1219.504 2957.647,1223.096 2955.951,1225.372 2950.986,1226.734 2950.768,1232.465 
	2956.144,1234.364 2966.751,1240.751 2973.455,1240.754 2980.75,1241.147 2985.557,1237.968 2990.573,1235.141 2993.489,1235.594 
	2999.437,1230.26 3006.303,1229.802 3013.492,1228.71 3022.331,1230.534 3028.61,1229.645 3037.097,1229.402 3040.79,1225.338 
	3042.717,1220.095 3051.386,1217.787 3061.987,1212.66 3071.529,1213.323 3082.909,1209.985 3095.858,1206.404 3113.763,1205.458 
	3123.381,1210.326 3130.408,1210.612 3143.239,1216.672 3141.359,1218.981 3146.634,1222.728 3152.892,1229.979 3152.582,1235.287 
	3160.39,1239.401 3164.221,1231.448 3170.468,1228.028 3178.603,1219.5 3179.401,1226.905 3175.539,1231.802 3174.024,1237.573 
	3168.794,1243.105 3177.692,1241.268 3182.576,1234.347 3184.995,1241.772 3181.708,1246.623 3191.328,1247.827 3196.241,1251.884 
	3198.566,1256.936 3200.422,1264.529 3206.886,1270.693 3216.566,1273.585 3222.283,1274.3 3227.954,1275.883 3236.6,1278.594 
	3245.357,1271.353 3250.822,1269.462 3249.27,1274.674 3255.396,1276.438 3263.679,1280.857 3269.721,1276.565 3274.317,1272.692 
	3283.546,1268.59 3294.739,1268.227 3300.473,1264.752 3299.961,1261.59 3301.252,1254.702 3303.782,1247.219 3307.641,1242.234 
	3310.605,1233.604 3313.94,1228.66 3317.591,1220.913 3325,1216 3329.416,1206.904 3331.396,1199.736 3331.192,1194.002 
	3333.891,1185.082 3335.621,1180.451 3336.195,1171.601 3331.429,1163.103 3332.119,1156.913 3331.862,1151.212 3329.052,1143.175 
	3321.235,1135.079 3316.592,1131.262 3309.496,1125.122 3307.773,1114.524 3305.329,1116.061 3301.274,1111.728 3297.283,1113.925 
	3293.394,1103.105 3287.675,1096.834 3288.984,1094.412 3282.276,1090.059 3275.211,1085.307 3264.375,1080.083 3261.137,1073.301 
	3262.103,1068.116 3259.389,1059.569 3256.87,1058.349 3255.353,1053.357 3253.22,1044.782 3254.247,1040.35 3249.449,1036.444 
	3246.137,1032.212 3239.721,1035.983 3236.118,1028.136 3236.472,1024.504 3235.721,1018.843 3232.086,1013.756 3231.659,1009.556 
	3229.168,1008.347 3228.473,1002.073 3225.653,997.182 3221.937,1000.927 3221.685,1003.78 3219.786,1009.275 3217.37,1014.576 
	3218.927,1017.915 3217.009,1019.947 3215.699,1027.481 3216.855,1033.204 3216.134,1036.113 3217.522,1040.949 3214.482,1048.905 
	3213.241,1054.389 3211.211,1058.82 3209.255,1064.191 3202.652,1067.608 3193.106,1064.216 3191.585,1061.127 3186.352,1058.566 
	3183.532,1058.576 3176.305,1052.651 3171.154,1049.208 3163.452,1046.003 3155.502,1040.477 3154.787,1037.654 3158.338,1032.74 
	3161.276,1027.743 3160.118,1023.745 3163.554,1023.412 3167.351,1019.372 3170.016,1014.019 3165.425,1009.072 3163.084,1010.993 
	3159.327,1010.123 3153.485,1012.986 3147.286,1009.912 3144.431,1010.923 3136.009,1008.365 3130.696,1004.264 3124.072,1001.785 
	3118.747,1003.238 3126.072,1006.53 3126.253,1011.64 3117.851,1013.524 3112.735,1012.336 3106.678,1015.864 3102.335,1021.575 
	3103.895,1024.073 3099.386,1026.687 3094.596,1034.707 3096.715,1040.198 3090.355,1039.26 3084.097,1039.192 3078.546,1033.269 
	3071.159,1028.68 "/>
<polygon fill="#FFFFFF" points="1018.591,638.397 1016.415,644.743 1020.159,647.638 1022.7,653.4 1025.153,652.902 1025.1,647.1 
	1021.6,638.8 "/>
<polygon fill="#FFFFFF" points="1015.4,621.8 1010.7,622.6 1011.4,626.3 1022.3,624.7 1022,622.1 "/>
<polygon fill="#FFFFFF" points="1028.775,631.708 1030.5,624.6 1022.6,620.1 1022.62,621.248 1027.1,625.2 1026.936,630.426 "/>
<polygon fill="#FFFFFF" points="1154.038,566.802 1153.887,566.737 1153.809,566.615 1153.666,566.645 1153.545,566.737 
	1153.456,566.796 1153.382,566.819 1153.438,566.9 1153.495,566.909 1153.56,566.859 1153.605,566.866 1153.636,566.952 
	1153.675,566.959 1153.664,566.873 1153.698,566.869 1153.828,566.902 1153.901,567.002 1153.763,567.11 1153.613,567.157 
	1153.433,567.071 1153.351,566.948 1153.314,566.948 1153.286,566.981 1153.229,567.033 1153.15,567.057 1153.116,567.093 
	1153.088,567.188 1153.077,567.267 1153.038,567.314 1152.933,567.369 1152.813,567.411 1152.7,567.428 1152.627,567.461 
	1152.553,567.467 1152.406,567.402 1152.332,567.441 1152.398,567.477 1152.538,567.565 1152.685,567.631 1152.503,567.703 
	1152.433,567.752 1152.274,567.831 1152.212,567.831 1152.193,567.916 1152.1,567.952 1151.934,567.952 1151.818,567.883 
	1151.872,567.775 1151.751,567.743 1151.782,567.681 1151.829,567.569 1151.941,567.54 1151.903,567.484 1152.061,567.359 
	1152.15,567.258 1152.161,567.205 1151.98,567.389 1151.864,567.451 1151.813,567.409 1151.779,567.458 1151.72,567.461 
	1151.72,567.592 1151.65,567.681 1151.717,567.887 1151.868,568.034 1151.98,568.014 1152.077,568.008 1152.112,568.024 
	1152.166,568.037 1152.244,568.027 1152.294,567.968 1152.395,567.939 1152.6,567.84 1152.755,567.781 1152.855,567.644 
	1152.948,567.592 1153.076,567.503 1153.293,567.362 1153.382,567.323 1153.537,567.225 1153.731,567.176 1153.933,567.048 
	1153.968,567.005 1153.894,566.91 1153.987,566.884 "/>
<polygon fill="#FFFFFF" points="1163.855,425 1160.351,420.14 1156.574,423.225 1159.072,426.573 1171.757,430.818 
	1175.461,430.166 1180.379,426.068 1171.107,426.341 "/>
<polygon fill="#FFFFFF" points="1182.144,397.614 1171.917,393.436 1158.768,390.928 1155.309,391.769 1164.607,396.493 
	1177.568,399.628 1182.437,399.449 "/>
<polygon fill="#FFFFFF" points="540.95,398.7 543.95,402.25 560.371,406.791 565.4,405.4 561.275,399.875 551.292,395.747 
	546.35,391 542.95,387.55 533.55,386.491 527.414,384.974 516.916,382.793 516.054,385.109 519.907,390.55 530.2,392.35 532,395.2 
	"/>
<polygon fill="#FFFFFF" points="1265.285,424.317 1269.808,423.945 1274.019,415.144 1270.914,408.928 1269.639,403.622 
	1262.64,405.332 1265.734,398.008 1255.762,394.933 1251.149,397.37 1242.276,394.629 1245.785,391.142 1239.069,388.999 
	1232.541,392.377 1239.16,383.63 1244.498,377.329 1246.43,374.617 1241.79,374.179 1233.114,377.625 1226.913,383.317 
	1216.582,399.244 1208.184,405.268 1212.534,407.985 1206.305,411.505 1207.84,414.466 1227.248,414.772 1237.992,414.174 
	1247.588,416.604 1240.525,421.303 1246.492,421.65 1258.095,412.977 1260.881,414.248 1258.711,422.429 "/>
<polygon fill="#FFFFFF" points="473.4,350.1 468.7,348.8 468.103,351.989 469.954,356.385 475,359.5 478.696,364.103 
	484.722,368.676 488.71,368.696 480.005,360.654 483,349.3 "/>
<polygon fill="#FFFFFF" points="1003.925,274.169 1007.842,268.913 1005.3,266.863 1001.206,266.644 997.346,269.644 
	996.879,270.335 999.505,273.319 "/>
<polygon fill="#FFFFFF" points="960.563,265.972 962.754,268.677 969.814,268.908 981.518,263.392 981.73,261.454 967.995,261.359 
	"/>
<polygon fill="#FFFFFF" points="999.466,253.24 992.326,249.925 984.966,250.704 984.08,245.948 972.624,242.833 961.674,239.404 
	955.86,236.782 950.742,238.325 948.887,233.927 941.661,233.112 938.251,242.271 936.972,250.142 928.28,255.088 941.832,254.127 
	945.266,259.976 959.496,254.803 969.412,249.481 975.028,253.983 990.59,256.388 "/>
<polygon fill="#FFFFFF" points="1048.34,216.057 1049.467,214.68 1049.355,210.396 1041.548,207.628 1032.383,209.014 
	1028.136,214.619 1030.631,219.513 1041.841,219.011 "/>
<polygon fill="#FFFFFF" points="818.317,189.065 811.326,193.4 802.526,196.5 816.182,200.993 824.326,199.9 837.805,202.93 
	844.023,199.423 837.926,195.6 834.926,193.7 828.926,191.9 "/>
<polygon fill="#FFFFFF" points="790.692,190.257 772.646,185.522 755.852,180.57 752.752,173.516 746.475,163.774 735.274,159.74 
	725.335,158.14 716.536,159.605 723.64,169.845 718.617,173.991 710.435,164.166 701.297,160.889 689.996,165.996 676.09,160.946 
	653.837,163.972 658.828,159.285 648.609,157.354 621.836,163.44 614.873,167.421 606.48,174.914 623.943,177.548 639.369,177.408 
	616.176,181.408 621.452,185.094 635.632,185.295 657,184.5 676.339,186.836 663.286,188.576 649.189,188.127 633.753,189.834 
	627.1,190.9 639.421,198.818 648.3,197.7 661.95,200.425 667.368,205.144 685.158,204.199 710.5,202.7 729.275,199.308 740.9,198.7 
	758.1,201.4 776.198,202.972 779.567,199.304 773.189,195.46 789.607,194.655 "/>
<polygon fill="#FFFFFF" points="755.5,156.3 747.9,154.1 734.5,154.5 731.1,155.9 746.7,162.9 "/>
<polygon fill="#FFFFFF" points="991.739,157.168 1002.742,162.471 1005.638,163.078 1016.583,161.733 1027.356,161.945 
	1037.986,162.236 1037.1,159.473 1019.856,153.981 996.969,152.903 992.161,153.568 "/>
<polygon fill="#FFFFFF" points="1133.288,226.62 1149.011,236.24 1161.316,240.513 1178.868,228.897 1181.98,221.879 
	1166.251,221.215 1151.877,212.024 1136.001,209.828 1112.449,203.298 1130.81,198.639 1121.35,189.28 1112.639,185.25 
	1088.5,181.3 1078.078,174.931 1059.509,177.191 1058.214,172.828 1044.442,168.063 1022.254,163.004 1012.794,166.978 
	993.011,169.881 994.499,163.334 977.344,152.99 951.999,157.097 942.756,165.159 934.878,158.925 942.239,152.462 916.418,155.121 
	906.134,159.205 898.448,168.149 901.619,178.274 915.823,178.318 905.366,182.88 913.683,186.393 929.9,187.9 951.053,190.834 
	987.445,193.068 1005.575,191.782 1010.928,188.831 1018.814,192.235 1027.626,192.805 1038.214,199.022 1031.809,201.552 
	1052.067,204.954 1067.384,209.806 1071.24,213.231 1073.988,217.654 1061.051,227.394 1057.561,232.382 1060.902,235.952 
	1040.317,237.23 1021.527,237.408 1014.94,244.771 1023.4,248.204 1052.315,246.609 1052.156,243.709 1066.717,248.56 
	1081.637,253.7 1078.146,256.521 1090.266,261.393 1111.726,267.198 1138.844,271.191 1137.217,267.699 1126.803,261.66 
	1112.668,253.043 1137.75,261.049 1150.362,263.758 1153.806,256.571 1147.298,246.672 1143.179,244.016 1129.604,239.415 
	1119.087,233.602 1120.35,227.873 "/>
<polygon fill="#FFFFFF" points="829.3,155.8 826.7,152.9 808.861,154.166 796.936,152.061 785.1,156.9 796.116,163.441 775.7,162.2 
	775.5,165.4 800.352,173.117 807.271,176.936 816.903,177.771 833.3,173.9 835.1,164.9 819.964,160.595 "/>
<polygon fill="#FFFFFF" points="857.81,170.254 868.537,162.78 880.46,160.837 895.402,151.933 876.3,149.5 855.463,149.151 
	845.542,151.876 840.317,156.126 840.163,161.097 846.401,169.881 "/>
<polygon fill="#FFFFFF" points="569.578,181.484 595.9,176.664 595.9,172.3 608.3,165.3 632.821,158.271 645.392,155.748 
	634.656,151.539 624.944,148.642 599.402,148.086 585.121,146.011 551.323,147.572 561.1,153.7 552.427,160.274 545.5,167.577 
	541.21,171.813 564.3,177.1 "/>
<polygon fill="#FFFFFF" points="858.931,144.576 864.372,140.7 860.723,137.535 851.992,134.028 837.614,136.722 832.291,141.224 
	844.413,143.831 "/>
<polygon fill="#FFFFFF" points="802.413,141.526 818.9,140.5 823.456,133.065 823.144,127.934 815.5,123.3 814.73,124.614 
	800.665,124.036 785.603,127.446 774.845,127.134 775.479,134.862 791.871,134.092 791.663,139.926 "/>
<polygon fill="#FFFFFF" points="623.396,138.278 637.378,140.066 682.558,138.875 661.786,143.297 663.062,146.557 678.269,146.33 
	703.5,142 737.365,140.447 743.45,135.705 741.69,130.806 731.211,130.372 722.306,132.045 718.386,128.483 715.014,123.717 
	704.689,122.558 695.527,126.202 709.829,135.768 692.358,135.008 674.595,129.086 646.451,125.711 637.04,128.51 "/>
<polygon fill="#FFFFFF" points="918.997,146.577 939.526,146.4 968.211,144.86 981.012,146.075 995.922,143.927 1002.161,141.269 
	999.925,137.131 989.215,133.36 972.966,132.657 952.604,133.508 936.708,135.676 922.117,134.838 908.629,134.398 902.278,132.022 
	890.803,129.76 893.082,126.004 884.45,122.715 864.761,122.737 853.659,119.521 833.049,118.886 829.286,122.989 840.875,126.086 
	861.562,127.307 871.601,131.673 872.817,136.632 876.276,142.122 902.853,145.344 "/>
<polygon fill="#FFFFFF" points="601.507,129.968 620.096,125.688 629.44,125.2 637.142,121.73 638.514,114.047 624.799,115.517 
	609.461,115.378 588.925,121.855 571.951,129.334 585.5,131.5 "/>
<polygon fill="#FFFFFF" points="862.1,115.3 863.294,114.157 856.274,112.3 836.137,112.154 838.804,114.949 857.544,115.586 "/>
<polygon fill="#FFFFFF" points="698.631,113.53 701.955,110.537 687.856,108.97 673.254,109.989 665.157,113.178 679.988,116.408 
	"/>
<polygon fill="#FFFFFF" points="703.869,104.48 690.863,102.456 685.5,102 675.241,104.994 675.079,106.421 691.687,106.431 "/>
<polygon fill="#FFFFFF" points="819.257,109.671 827.402,111.994 842.197,109.93 844.907,106.317 832.956,102.842 827.128,102.18 
	814.18,101.781 814.971,105.919 "/>
<polygon fill="#FFFFFF" points="758.396,103.726 748.739,106.697 771.002,107.068 787.461,110.31 803.791,111.424 799.898,107.252 
	792.248,102.495 765.207,98.846 745.577,97.484 746.304,101.317 "/>
<polygon fill="#FFFFFF" points="850.76,96.775 869.048,96.699 861.143,99.363 860.988,102.99 871.733,107.067 892.456,108.347 
	910.147,107.628 928.624,100.107 942.357,97.131 930.3,93.9 922.4,87.3 906,85.407 889.171,83.265 876.402,77.926 853.146,78.435 
	857.516,80.727 847.266,81.427 840.336,84.477 833.403,88.922 839.739,93.45 "/>
<polygon fill="#FFFFFF" points="898.5,77.9 906.834,81.943 924.51,85.337 959.5,84.7 982.018,85.856 966.413,89.5 958.516,88.416 
	931.182,87.985 935.427,93.138 949.551,97.046 946.713,100.531 928.98,102.913 920.881,106.782 937.1,108.7 950.737,115.113 
	924,110.798 917.9,111.5 922.826,118.717 904.339,120.979 905.593,125.776 924.5,126.3 939.382,127.51 968.756,125.96 
	994.888,128.719 1021.609,122.72 1021.391,120.279 1004.304,120.666 1002.905,118.403 1016.873,115.414 1021.615,111.501 
	1037.065,108.67 1046.566,105.242 1038.295,100.309 1045.208,98.523 1031.423,97.269 1061.7,96.198 1068.072,94.158 1088.7,92.5 
	1105.803,84.332 1122.1,81.5 1145.697,75.434 1123.925,75.486 1132.966,73.247 1157.16,71.222 1181.561,66.883 1182,64.214 
	1163.7,61.5 1142.227,60.22 1115.5,59.437 1093.842,58.802 1072.185,58.167 1043.312,59.859 1038,58.779 1007.434,59.194 
	989.5,60.3 976.3,61.9 968.7,67.3 957.9,64.5 945.5,63.977 930.798,67.704 911.177,69.325 899.5,69.65 884.63,71.557 
	886.821,74.969 "/>
<polygon fill="#FFFFFF" points="1127.59,1443.512 1130.901,1439.468 1136,1443 1145.5,1442.5 1150,1437.5 1136,1435 1123,1429 
	1118,1421.5 1114.16,1416.864 1107.043,1415.683 1097.825,1419.812 1094.582,1426.658 1089.423,1431.243 1076.158,1427.654 
	1062.119,1420.974 1053.875,1418.875 1067.648,1430.075 1077.861,1435.451 1090.443,1441.038 1100.919,1442.484 1108.179,1445.49 
	1114.1,1446.3 1119.014,1446.618 "/>
<polygon fill="#FFFFFF" points="2906.207,697.941 2910.601,693.541 2908.365,689.725 2902.616,689.487 2891.691,692.289 
	2886.762,696.821 2887.052,705.423 2895.252,708.523 2903.892,703.716 "/>
<polygon fill="#FFFFFF" points="1050.884,691.265 1057.534,689.996 1058.72,687.654 1051.161,683.561 1043.789,683.149 
	1044.518,680.334 1038.554,678.294 1035.262,678.432 1029.036,673.921 1020.567,667.728 1017.026,665.378 1007.685,666.508 
	1003.705,662.847 994.312,659.44 986.455,659.327 977.819,658.614 975.396,659.712 967.825,660.669 962.718,662.619 
	958.196,664.842 956.029,668.45 950.751,671.54 955.03,672.488 959.979,671.394 961.412,668.954 965.555,668.815 972.741,663.618 
	982.55,664.13 978.8,666.629 982.291,668.579 995.325,670.129 998.325,672.227 1007.65,674.908 1013.301,674.519 1015.672,680.214 
	1019.127,683.1 1025.573,683.769 1029.649,686.366 1022.945,691.945 1037.263,690.971 1044.153,691.762 "/>
<polygon fill="#FFFFFF" points="2137.172,536.768 2129.97,536.633 2128.525,539.045 2127.818,539.1 2123.067,539.468 
	2125.403,543.483 2130.298,544.781 2140.549,540.719 2140.236,539.915 2139.508,538.042 2146.265,533.784 "/>
<polygon fill="#FFFFFF" points="1921.4,342.5 1927.4,334.4 1924.209,329.386 1909.539,332.7 1910.935,336.851 "/>
<polygon fill="#FFFFFF" points="3586.027,1072.006 3587.681,1066.785 3584.236,1063.899 3581.756,1065.548 3577.209,1064.311 
	3573.35,1067.746 3574.315,1072.143 3579.827,1073.38 "/>
<polygon fill="#FFFFFF" points="3591.466,1054.84 3586.468,1056.891 3587.75,1060.62 3594.141,1058.513 3600.5,1056.052 
	3600.5,1051.171 3594.635,1054.29 "/>
<polygon fill="#FFFFFF" points="2.567,1050.709 0.5,1051.171 0.5,1056.052 1.326,1055.518 "/>
<polygon fill="#FFFFFF" points="1200.5,1403 1188.5,1409 1193.5,1413.5 1202,1409 1206.5,1412.5 1220,1409.5 1223,1406 1215,1401.5 
	1209,1405.5 "/>
<polygon fill="#FFFFFF" points="1892.797,476.7 1896.1,468.975 1894.4,460.4 1887.96,464.219 1885.942,467.935 1888.257,474.664 "/>
<polygon fill="#FFFFFF" points="1744.636,337.388 1750.02,332.66 1753.309,335.415 1749.675,339.884 1752.058,342.59 1764.2,344.35 
	1764.353,344.49 1771.05,350.65 1769.579,356.456 1769.562,356.454 1754.7,355.55 1752.8,362.1 1758.276,367.486 1747.827,370.586 
	1750.656,374.565 1766.273,376.231 1766.351,376.24 1757.4,378.4 1742.734,388.903 1748.05,390.9 1755.075,387.081 
	1764.326,388.216 1770.937,383.531 1775.6,385.5 1792.625,382.75 1806.003,382.842 1814.999,377.606 1811.006,372.432 1816.1,369.5 
	1817.315,363.105 1805.2,361.2 1802.35,357.25 1796.195,345.856 1789.35,344.25 1780.443,332.451 1779.65,331.4 1769.31,330.762 
	1778.3,321.8 1780.907,313.652 1769.95,313.6 1759.762,314.97 1770.45,304.15 1758.385,304.992 1750.4,304.2 1742.632,312.311 
	1739,322.65 1744.05,327.75 "/>
<polygon fill="#FFFFFF" points="2050.75,536.25 2042.967,536.82 2037.5,533.45 2035.65,537.7 2047.85,539.65 2047.75,541.3 
	2062.15,540.45 2063.4,537.5 2057.95,538.7 2058.192,536.96 "/>
<polygon fill="#FFFFFF" points="1178.156,77.289 1163.607,78.36 1128.987,85.342 1120.27,89.328 1147.261,92.919 1143.393,96.556 
	1106.766,101.361 1068.906,106.173 1067.53,110.058 1090.071,114.14 1132.86,116.74 1112.733,117.269 1086.474,120.414 
	1103.852,126.702 1115.456,129.886 1139.857,129.151 1166.583,128.748 1187.814,129.476 1214.648,135.327 1214.532,139.514 
	1227.264,143.397 1239.3,154.002 1247.237,160.914 1253.318,164.637 1242.153,173.956 1250.5,176.435 1260.458,175.028 
	1269.406,178.451 1286.599,184.802 1266.187,182.142 1256.912,182.287 1253,187.607 1253.666,194.4 1265.937,197.664 
	1274.921,196.238 1280.364,194.751 1291.788,191.209 1289.696,199.022 1285.746,203.204 1270.696,206.924 1260.809,218.61 
	1267.484,222.135 1263.883,229.504 1277.734,238.733 1279.099,247.716 1284.167,254.231 1301.496,266.666 1308.169,276.432 
	1317.871,281.916 1337.864,281.967 1352.625,290.132 1366.716,289.523 1371.838,279.76 1376.333,271.491 1372.306,263.677 
	1388.613,255.675 1393.672,249.11 1393.81,242.1 1402.378,235.915 1416.75,233.579 1430.062,231.123 1436.972,230.711 
	1458.48,223.703 1472.39,213.145 1482.734,209.292 1493.763,209.25 1523.026,205.795 1550.207,197.912 1577.01,189.205 
	1563.226,188.66 1536.872,188.235 1548.487,182.977 1545.066,176.19 1557.43,181.935 1565.14,185.79 1582.964,183.863 
	1579.172,175.81 1566.07,169.698 1552.57,167.198 1557.717,164.521 1577.505,168.659 1577.369,164.207 1564.841,157.434 
	1578.778,157.404 1592.877,155.856 1596.155,152.329 1584.558,148.262 1606.772,147.544 1593.818,138.941 1604.51,138.016 
	1602.159,129.519 1583.706,124.22 1600.15,121.057 1615.771,120.643 1603.765,114.114 1603.45,102.987 1611.5,96.5 1623.197,89.209 
	1600.038,88.729 1632,87 1637.647,84.7 1678.415,77.584 1672.798,73.311 1642.818,71.375 1594.264,75.254 1568.804,78.973 
	1579.782,73.155 1571.467,69.568 1552.055,72.63 1521.933,69.182 1486.535,70.284 1481.5,68.5 1535.325,67.523 1573.582,67.083 
	1592.046,63.233 1529.495,55.303 1449.621,54.049 1414.279,55.009 1401.525,58.698 1366.436,58.248 1332.862,64.22 1331.493,68.502 
	1355.27,73.893 1334.502,70.641 1320.461,69.852 1296.594,66.112 1270.067,71.617 1259.156,68.504 1228.426,68.592 1197.675,70.164 
	1173.988,72.796 "/>
<polygon fill="#FFFFFF" points="1065.955,708.321 1072.056,709.044 1076.775,708.35 1083.417,710.05 1083.923,712.924 
	1086.498,714.514 1090.5,707.667 1093.807,706.231 1095.329,708.657 1099.168,708.041 1100.971,706.217 1104.26,706.693 
	1108.851,706.273 1113.607,708.448 1117.321,704.378 1112.406,700.709 1107.957,700.348 1108.279,697.368 1102.807,697.567 
	1100.992,694.02 1098.356,694.271 1092.433,691.697 1084.627,691.651 1083.376,693.355 1074.703,691.785 1068.602,691.343 
	1066.35,694.104 1072.659,695.664 1072.583,699.484 1077.151,703.816 1073.551,706.042 1066.005,705.239 1056.801,703.851 
	1055.92,707.074 1061.276,710.19 "/>
<polygon fill="#FFFFFF" points="2990.178,986.08 3003.45,993.086 3007.656,992.896 3008.255,990.197 3004.758,987.159 
	2999.503,984.113 "/>
<polygon fill="#FFFFFF" points="3036,989.5 3035.1,992.9 3036.3,994.1 3044.859,991.9 3051.385,984.432 3051.2,981.4 
	3050.187,979.428 3040.3,983.4 "/>
<polygon fill="#FFFFFF" points="2983.106,974.124 2979.5,971.457 2976.82,974.993 2971.337,975.071 2967.901,980.829 
	2973.277,980.909 2980.204,979.566 2991.765,977.558 2989.285,973.307 "/>
<polygon fill="#FFFFFF" points="3028.07,976.998 3029.535,971.442 3020.574,975.106 3013.917,975.867 3007.651,972.869 
	2999.709,974.948 2999.744,978.604 3013.045,979.837 "/>
<polygon fill="#FFFFFF" points="2885.368,954.72 2881.221,953.957 2873.15,950.05 2861.016,949.459 2854.155,959.014 
	2863.306,959.749 2865.041,964.049 2883.278,968.166 2887.437,966.916 2894.777,967.907 2906.362,971.726 2915.721,973.521 
	2926.097,974.262 2935.147,973.989 2946.145,978.018 2957.555,974.208 2945.289,968.265 2930.288,966.442 2926.648,959.96 
	2908.096,955.152 2905.892,959.273 2886.735,958.277 "/>
<polygon fill="#FFFFFF" points="3141.628,951.925 3142.601,959.452 3147.746,952.644 3147.77,947.876 3145.496,944.95 
	3143.403,948.33 "/>
<polygon fill="#FFFFFF" points="3060.39,922.273 3062.338,926.574 3069.249,928.41 3072.992,925.09 3070.507,921.793 "/>
<polygon fill="#FFFFFF" points="3081.859,918.936 3079.489,924.434 3086.407,924.787 3092.052,924.126 3100.406,924.963 
	3108.848,929.085 3105.213,921.437 3094.21,918.521 "/>
<polygon fill="#FFFFFF" points="2993.734,904.031 2992.31,911.971 2988.178,918.52 2991.283,925.37 2995.488,925.444 
	2997.036,935.094 2994.169,944.299 2998.465,947.234 3004.807,945.782 3004.4,931.476 3003.554,919.816 3010.224,916.776 
	3009.482,926.521 3016.692,932.385 3015.395,936.245 3017.882,939.013 3027.696,935.142 3022.864,943.329 3026.785,946.846 
	3032.123,943.906 3032.21,937.337 3023.219,925.795 3025.046,922.36 3015.583,909.545 3024.385,905.668 3028.727,899.809 
	3033.084,901.262 3033.906,896.657 3015.258,900.059 3009.859,904.589 3000.909,895.696 3002.331,888.127 3011.067,886.688 
	3027.731,886.188 3037.355,888.144 3044.87,886.221 3052.905,876.301 3051.16,874.067 3041.275,881.329 3029.776,881.748 
	3017.168,880.36 3009.358,877.408 3000.857,884.835 2998.76,888.957 "/>
<polygon fill="#FFFFFF" points="3080.542,874.215 3079.824,868.754 3076.505,872.393 3074.495,880.383 3077.465,893.166 
	3081.5,899.5 3084.3,898.3 3080.18,893.021 3081.702,886.936 3086.86,887.915 3087.383,879.176 3086.446,875.092 "/>
<polygon fill="#FFFFFF" points="2890.027,886.346 2891.419,895.095 2896.219,903.649 2901.209,906.429 2902.739,919.84 
	2910.982,920.994 2917.533,920.444 2921.181,925.284 2933.07,921.688 2938.057,924.892 2945.187,925.457 2949.148,931.57 
	2960.509,927.07 2961.981,930.627 2965.838,915.335 2966.101,905.376 2975.717,898.537 2975.283,889.475 2978.619,882.657 
	2990.468,881.478 2979.256,872.223 2980.983,867.623 2973.632,858.156 2979.32,849.124 2986.683,845.718 2984.897,840.835 
	2991.607,840.339 2992.319,836.421 2983.977,833.413 2977.391,830.625 2976.934,826.278 2971.796,821.219 2967.751,821.252 
	2962.708,829.068 2955.007,836.023 2946.5,841.5 2942.54,845.241 2937.629,851.565 2930.456,859.476 2918.469,861.641 
	2914.201,863.527 2912.188,871.994 2904.461,873.862 2897.133,870.435 2891.191,877.081 "/>
<polygon fill="#FFFFFF" points="2831.268,884.886 2825.483,876.513 2817.08,869.663 2806.914,869.506 2797.44,858.757 
	2791.926,854.596 2784.192,847.816 2775.349,838.037 2759.869,836.105 2753.43,835.702 2754.309,840.792 2764.74,851.811 
	2772.27,857.412 2777.496,865.968 2786.513,872.265 2790.2,880.071 2793.137,888.668 2801.92,897.003 2809.525,911.002 
	2814.491,918.498 2822.062,926.641 2826.343,932.702 2839.182,940.873 2847.604,949.233 2858.677,949.023 2859.074,933.555 
	2861.586,921.118 2856.721,914.788 2849.379,913.904 2845.895,908.324 2844.2,901.348 2840.608,901.092 2834.876,897.619 
	2838.884,889.454 "/>
<polygon fill="#FFFFFF" points="1714.884,373.807 1732.612,367.899 1740.17,358.968 1738.521,351.824 1743.88,344.954 
	1733.161,338.771 1724.778,339.184 1717.22,343.855 1703.615,351.686 1708.837,361.854 1700.729,372.295 "/>
<polygon fill="#FFFFFF" points="1600.772,254.064 1613.938,255.536 1622.556,253.712 1651.402,246.859 1664.403,239.233 
	1653.104,232.412 1655.413,225.941 1638.822,225.232 1622.514,230.561 1609.932,227.734 1594.737,233.179 1579.151,226.395 
	1563.995,227.875 1557.238,234.388 1578.226,236.714 1578.656,239.65 1560.95,241.589 1582.715,246.479 1572.87,250.898 "/>
<polygon fill="#FFFFFF" points="1948.113,509.061 1937.912,510.15 1926.209,509.236 1924.81,514.37 1938.767,519.455 
	1943.852,520.534 1951.5,524.3 1953.599,519.158 1952.102,516.06 1955.704,508.188 "/>
<polygon fill="#FFFFFF" points="1884.382,486.717 1884.783,498.781 1888.569,501.434 1892.648,498.095 1897.195,498.726 
	1898.6,485.5 1892.6,478.4 1887.6,481.5 1882.1,481 "/>
<polygon fill="#FFFFFF" points="1031.534,706.491 1024.804,705.595 1022.526,705.258 1018.323,705.955 1017.123,708.24 
	1022.84,711.884 1028.437,713.489 1031.474,711.817 1038.503,711.631 1036.846,708.893 "/>
<polygon fill="#FFFFFF" points="3133.303,557.604 3138.429,555.28 3142.534,558.488 3148.164,552.436 3146.884,549.008 
	3139.541,546.851 3135.43,551.054 3129.744,549.897 3124.212,555.863 3124.131,560.606 3130.649,563.454 "/>
<polygon fill="#FFFFFF" points="3189.076,512.225 3174.406,522.226 3167.738,517.45 3157.275,535.229 3146.583,533.184 
	3126.677,536.166 3119.342,543.003 3109.284,548.172 3104.039,554.458 3094.585,557.539 3098.647,564.397 3104.977,567.305 
	3102.524,576.317 3107.363,580.204 3113.828,575.996 3120.5,559 3110.361,551.642 3122.068,551.451 3133.903,546.74 
	3151.294,544.534 3151.71,552.009 3158.43,555.852 3172.676,544.437 3190.255,543.824 3203.033,539.119 3208.241,532.071 
	3206.498,527.06 3210.264,519.079 3210.095,508.76 3219.346,498.691 3219.643,490.584 3214.19,476.714 3203.558,478.55 
	3199.334,484.867 3201.048,496.112 3194.764,508.34 "/>
<polygon fill="#FFFFFF" points="3203.621,457.167 3198.676,464.862 3200.051,474.804 3211.173,474.654 3216.615,463.712 
	3232.338,470.548 3241.097,460.616 3255.931,457.879 3253.708,446.652 3246.634,450.891 3239.602,448.759 3231.929,445.396 
	3220.177,434.985 3217.219,442.779 3214.305,456.612 "/>
<polygon fill="#FFFFFF" points="2612.68,828.528 2616.873,825.682 2618.38,815.269 2613.543,804.858 2608.888,797.816 
	2601.978,792.259 2597.452,808.491 2599.225,822.865 2603.984,830.816 "/>
<polygon fill="#FFFFFF" points="2239.464,1098.804 2239.437,1102.133 2234.833,1103.865 2233.042,1111.074 2233.957,1118.269 
	2237.478,1126.241 2238.138,1135.107 2240.897,1140.383 2248.836,1143.961 2254.595,1146.514 2263.325,1142.285 2271.458,1139.916 
	2275.977,1128.319 2279.808,1114.415 2285.985,1095.469 2290.918,1081.688 2294.856,1070.031 2295.486,1061.56 2298.246,1059.25 
	2299.134,1055.01 2297.226,1047.602 2299.106,1044.642 2302.503,1050.503 2304.271,1047.561 2305.265,1042.765 2302.674,1038.088 
	2301.065,1026.057 2298.59,1019.453 2295.935,1015.198 2292.447,1010.905 2289.135,1015.379 2288.951,1021.392 2283.438,1028.341 
	2279.19,1027.139 2280.552,1031.412 2277.551,1036.443 2269.322,1042.602 2263.623,1048.3 2259.23,1048.434 2255.527,1050.244 
	2249.949,1052.294 2244.965,1052.662 2243.625,1059.005 2240.131,1064.599 2240.93,1073.814 2242.824,1080.12 2245.144,1084.854 
	2244.243,1091.223 "/>
<polygon fill="#FFFFFF" points="3458.3,1101.3 3455.1,1098.5 3450.7,1095.1 3445.1,1091.7 3440.796,1091.556 3442.18,1094.947 
	3448.798,1101.998 3455.244,1107.296 3462.397,1111.797 3467.9,1114.5 3471.7,1112.1 3466.5,1107.5 "/>
<polygon fill="#FFFFFF" points="2025.403,116.051 2047.741,111.961 2033.313,109.704 2029.343,105.951 2008.619,107.954 
	2014.661,111.149 2007.76,113.729 "/>
<polygon fill="#FFFFFF" points="1932.206,110.251 1947.195,113.143 1938.126,116.696 1959.631,122.795 1971.682,122.406 
	1976.444,114.12 1985.217,112.233 1990.774,104.874 2015.938,100.939 1983.018,93.482 1970.408,89.991 1955.725,90.339 
	1951.928,93.757 1937.685,93.896 1932.208,90.395 1904.945,93.976 1912.723,101.807 "/>
<polygon fill="#FFFFFF" points="1999.473,92.076 2001.252,94.832 2030.745,96.5 2059.747,95.322 2074.575,89.936 2054.976,86.427 
	2029.693,83.929 2019.579,86.923 2005.06,84.518 1974.18,87.311 1985.123,91.901 "/>
<polygon fill="#FFFFFF" points="3519.987,1305.644 3516.197,1308.174 3511.751,1315.627 3505.749,1320.817 3497.178,1326.053 
	3489.994,1329.858 3483.538,1331.74 3470.964,1341.609 3465.592,1349.027 3467.269,1352.699 3478.137,1353.402 3484.614,1356.699 
	3493.823,1356.912 3498.814,1354.058 3506.667,1349.589 3512.351,1339.471 3515.029,1332.925 3523.586,1329.157 3531.301,1329.033 
	3527.613,1324.223 3532.727,1320.2 3539.264,1312.832 3542.985,1308.2 3542.976,1303.991 3540.084,1299.767 3532.972,1303.82 
	3530.704,1299.69 3528.486,1295.439 3521.472,1300.061 "/>
<polygon fill="#FFFFFF" points="3560.085,1266.054 3558.589,1258.489 3554.076,1255.762 3553.866,1262.591 3546.62,1252.064 
	3543.794,1243.155 3536.013,1240.562 3530.57,1235.006 3526.86,1235.791 3531.042,1242.871 3538.91,1251.72 3543.69,1255.848 
	3543.42,1257.611 3547.47,1264.311 3547.935,1270.778 3546.248,1278.477 3539.023,1281.966 3538.74,1285.588 3549.501,1289.589 
	3552.776,1295.092 3547.01,1303.318 3551.179,1304.759 3552.896,1307.383 3560.625,1303.396 3565.58,1296.548 3569.358,1291.16 
	3570.829,1289.299 3569.9,1284.997 3572.57,1281.958 3580.205,1282.163 3583.247,1276.328 3585.671,1267.454 3580.604,1266.298 
	3574.888,1270.112 3568.132,1269.312 "/>
<polygon fill="#FFFFFF" points="3035.377,803.57 3029.924,807.337 3023.624,810.15 3019.699,818.579 3021.355,821.506 
	3028.755,815.926 3033.461,816.311 3036.602,812.165 3042.937,816.894 3039.887,821.648 3042.698,828.886 3054.465,834.69 
	3057.332,830.003 3054.138,822.635 3058.814,817.563 3062.468,827.757 3065.874,818.606 3065.285,812.996 3064.268,806.353 
	3063.566,802.675 3062.727,797.639 3054.621,792.897 3055.214,800.63 3048.146,800.896 3046.515,805.358 3038.912,808.097 "/>
<polygon fill="#FFFFFF" points="3029.974,781.681 3028.871,787.888 3026.361,790.689 3024.301,793.366 3030.459,800.278 
	3033.599,797.317 3036.732,790.999 3040.324,787.712 3041.279,778.173 3033.878,787.826 3035.489,781.094 "/>
<polygon fill="#FFFFFF" points="2990.374,786.737 2984.369,793.655 2977.145,799.831 2972.243,806.825 2985.546,797.336 
	2990.795,790.463 2997.397,784.957 2995.615,776.803 "/>
<polygon fill="#FFFFFF" points="3019.335,771.582 3020.884,776.341 3020.174,781.443 3020.526,786.09 3026.877,783.087 
	3031.508,778.84 3031.702,774.663 3025.338,774.678 "/>
<polygon fill="#FFFFFF" points="3055.525,768.873 3052.771,765.143 3043.168,764.922 3049.28,772.558 3049.41,776.344 
	3043.525,775.546 3045.091,781.601 3048.102,782.12 3048.518,789.153 3053.274,786.913 3050.828,780.742 3050.619,777.385 
	3058.335,780.039 "/>
<polygon fill="#FFFFFF" points="3008.839,763.455 3013.122,768.444 3015.774,759.804 3012.301,756.203 3003.734,755.836 "/>
<polygon fill="#FFFFFF" points="2999.709,736.436 3001.204,740.791 3006.141,746.537 3007.433,742.933 3010.418,745.246 
	3007.294,747.79 3006.786,751.923 3011.764,754.133 3020.846,752.655 3027.214,758.642 3029.787,754.971 3033.48,760.225 
	3041.274,765.133 3042.313,760.525 3039.051,758.122 3040.003,752.679 3027.513,747.134 3023.089,748.318 3017.788,747.216 
	3015.551,739.252 3017.128,731.19 3023.023,727.875 3025.656,719.565 3022.243,712.397 3023.87,708.251 3022.96,705.71 
	3019.876,708.314 3013.713,705.459 3007.659,705.448 3004.4,714.509 3003.365,730.154 2999.338,726.863 "/>
<polygon fill="#FFFFFF" points="3356.5,959.7 3359.3,958.7 3360.7,955.9 3355.978,952.506 3351.129,946.168 3348.1,943.9 
	3347.025,940.924 3345.641,941.891 3347.792,949.508 3352.17,955.859 "/>
<polygon fill="#FFFFFF" points="3301.897,940.513 3300.462,940.761 3298.956,945.555 3293.484,946.337 3284.518,944.877 
	3283.689,947.971 3289.401,950.76 3297.6,953.665 3302.912,953.677 3308.044,951.337 3313.514,948.907 3315.091,946.103 
	3320.328,945.28 3323.687,939.176 3323.887,933.629 3321.868,931.988 3315.879,932.178 3316.979,938.071 3311.397,941.637 
	3308.575,945.058 3302.869,945.822 "/>
<polygon fill="#FFFFFF" points="3276.981,951.336 3260.319,945.156 3258.798,939.265 3253.232,934.237 3246.34,929.114 
	3227.853,923.391 3210.502,916.501 3199.767,914.59 3192.349,911.013 3183.797,907.527 3174.907,907.535 3163.433,913.57 
	3155.076,924.177 3144.726,918.192 3141.934,902.018 3140.355,898.302 3124.301,894.195 3119.175,897.454 3105.696,899.877 
	3109.928,904.825 3118.862,906.671 3122.824,912.625 3137.462,912.645 3138.3,915.298 3131.168,915.104 3120.398,918.705 
	3128.038,923.618 3128.069,927.963 3130.34,931.63 3134.177,930.748 3137.129,925.888 3152.146,935.129 3160.393,935.965 
	3179.778,944.433 3184.579,952.828 3187.186,963.702 3180.891,966.479 3176.645,974.617 3189.315,974.309 3191.778,971.46 
	3201.934,973.471 3210.839,981.679 3210.839,981.679 3221.183,982.096 3226.784,983.768 3234.639,980.331 3233.364,972.955 
	3239.471,969.653 3247.942,966.801 3260.985,971.174 3266.179,979.925 3271.854,985.424 3279.63,991.804 3289.731,993.309 
	3298.323,994.433 3300.784,997.025 3307.406,996.327 3308.516,993.437 3297.888,989.229 3300.887,987.343 3293.166,985.644 
	3293.568,981.214 3287.841,981.546 3281.346,970.941 3272.419,964.38 3270.209,957.716 3279.411,956.64 "/>
<polygon fill="#FFFFFF" points="3320.032,925.12 3324.56,928.397 3326.887,932.261 3328.773,938.164 3331.9,935.5 3330.7,930.3 
	3326.9,927.1 3322.9,922.9 3318.7,920.5 3315.3,918.3 3309.9,915.5 3307.121,917.915 3314.343,920.854 "/>
<polygon fill="#FFFFFF" points="1129.493,705.294 1128.076,706.755 1128.658,711.034 1134.501,710.682 1142.028,710.741 
	1144.59,708.22 1142.787,706.233 1137.676,705.352 "/>
<polygon fill="#FFFFFF" points="3216.441,371.146 3222.3,380.977 3221.858,394.348 3219.544,401.908 3220.684,412.699 
	3219.569,422.441 3221.42,430.832 3227.977,423.092 3235.553,429.121 3235.835,422.133 3226.087,411.884 3232.239,397.434 
	3247.042,400.736 3236.98,383.024 3232.853,372.933 3233.108,363.092 3229.646,353.454 3227.048,346.841 3222.597,348.245 
	3226.569,352.878 3217.325,357.48 "/>
<polygon fill="#FFFFFF" points="1.662,231.754 13.639,229.379 11.467,233.096 16.901,236.595 28.273,235.297 38.428,236.933 
	40.665,241.271 53.961,244.187 61.582,247.674 70.947,247.973 74.95,245.892 75.198,236.121 91.589,235.086 101.504,230.727 
	81.927,221.369 54.782,219.878 57.102,227.144 50.358,224.656 51.218,218.441 25,208.5 0.5,200.864 0.5,240.703 6.173,236.459 "/>
<polygon fill="#FFFFFF" points="3587.753,179.512 3589.534,182.688 3600.5,182.178 3600.5,175.343 "/>
<polygon fill="#FFFFFF" points="23.864,179.172 24.721,177.805 10.257,174.945 1.781,174.924 0.5,175.343 0.5,182.178 
	13.562,181.57 "/>
<polygon fill="#FFFFFF" points="3208.617,152.849 3199.131,156.802 3200.882,157.331 3221.376,158.445 3236.539,158.375 
	3235.328,155.747 3221.121,151.924 "/>
<polygon fill="#FFFFFF" points="3296.259,143.611 3307.817,139.659 3282.722,137.042 3264.085,135.532 3261.692,138.77 
	3280.275,142.716 "/>
<polygon fill="#FFFFFF" points="3206.638,142.023 3243.5,142.3 3251.363,134.874 3215.216,129.571 3188.811,129.132 
	3175.618,131.008 3170.244,137.883 3190.054,144.385 "/>
<polygon fill="#FFFFFF" points="2325.283,168.206 2315.058,170.351 2316.519,175.752 2334.62,178.433 2337.274,182.873 
	2369.95,184.172 2375.857,183.295 2356.728,175.094 2354.693,166.787 2370.368,157.169 2385.271,147.409 2416.335,137.891 
	2446.873,133.122 2482.306,128.164 2489.022,125.052 2482.071,121.103 2462.61,122.402 2445.484,126.109 2412.2,127.981 
	2379.187,134.406 2356.819,139.686 2359.525,144.225 2335.583,153.002 2344.776,154.224 2324.942,162.753 "/>
<path fill="#FFFFFF" d="M3557.74,191.727l-20.801,0.598l-31.905-2.796l-4.452,4.443l8.087,6.391l-12.392,3.198l-17.42-8.889
	l-18.953,1.107l-18.879-1.963l-17.734,0.262l-13.385,2.048l-12.319-2.847l1.217-7.312l-8.325-4.135l-19.909-1.647l-40.38,1.892
	l-26.177-7.642l-8.512-5.936l-90.318-6.494l-13.203,4.332l7.219,9.284l-16.357-1.402l-7.365,2.804l-19.356-3.076l-17.043,2.688
	l-16.042-4.499l-9.649,10.493l-15.726-4.06l-12.56-7.87l5.916-4.187l-4.603-6.4l-16.148-5.268L3054.3,154.9l-21.222-1.75
	l-0.571,7.638L2990.7,159.3l-2.437-4.677l-32.085-1.651l-15.99,1.58l-4.392,2.598l-5.101-6.419l-9.003,1.892L2906.9,150.1l-12.4-1.4
	l7.512-2.967l26.279-5.551l11.062-2.959l2.488-5.198l-8.027-3.746l-22.542-4.878l-29.235-0.133l-9.138,2.433l-2.699-4.942
	l-22.651-1.532l13.616-2.465l-17.15-3.24l-23.608,4.104l-9.555,4.256l-2.757,4.316l-18.371-0.166l-22.443,5.314l-8.182-2.245
	l-26.258,0.928l-3.336,2.739L2703.1,134.1l-19.443,4.961l-11.489,0.275l-11.573,6.568l8.127,5.228l-21.67,1.31L2623,152
	l-17.389,2.018l0.996,10.654L2615.5,173l-18.48-5.701l-20.754,0.529l-16.735,3.932l4.56,7.211l-10.701-1.827l3.945-9.65
	l-5.255-5.544l-4.988,0.227l2.316,7.111l-17.897,6.74l12.987,8.154l-7.979,10.041l2.405,5.562l10.935,0.823l-4.666,6.602
	l5.827,5.685l-8.655,4.762l-2.655,4.948l-11.002,2.568l-3.978,3.6l-11.43-1.473l19.587-14.204l4.292-6.675l-11.032-6.13
	l2.272-13.703l-3.218-6.99l-6.22-3.188l9.479-8.111l-2.085-5.562L2499.9,160.1l-7.436,1.966l-6.563,9.089l-18.454,9.055l0.303,3.201
	l5.348,7.802l-3.297,4.741l12.052,0.981l0.292,2.121l10.163,5.287l-6.685,5.233l-36.24-11.425l-13.841-3.126L2406,192l-5.2,3.3
	l10.478,5.793l-11.364,6.622l-11.394-6.024l-14.85,4.145l-18.743,0.276l-7.164,3.416l-12.405-1.043l9.859-6.068l-7.543-0.492
	l-34.898,8.587l-20.889,4.763l-2.446,6.378l-15.45,2.169l-7.871-3.424l-0.068-5.565l12.662-1.234L2263,208l-27.972-3.208
	l7.351,6.203l-4.896,5.981l8.339,5.961l-5.825,6.873l-9.337-3.495l-9.229-0.576l-23.305,9.794l6.73,7.324l-8.421,2.437
	l-24.174-6.224l-6.365,3.788l6.024,4.297l-1.292,4.849l-7.814-2.596l-12.874-3.049l-0.654-10.218l-0.638-4.639l-16.303-7.324
	l7.343-1.271l44.643,7.601l16.329-2.667l11.101-5.254l-0.661-6.656l-7.675-4.753l-37.784-11.31l-27.385-2.38l-16.427-6.045
	l-10.316,3.478l0,0l-10.956-6.282l12.88-2.675l-31.279-7.317l-17.955,1.992l-18.235-0.442l-15.228,8.284l-16.453-0.531
	l-21.944,4.377l-27.481,12.542l-16.748,7.526l-24.028,19.309l-18.306,13.937l-19.743,10.32l-26.405,8.395l-9.208,6.435l3.161,23.078
	l3.576,10.751l13.829,5.093l13.333-2.344l19.745-11.565l6.708,6.137l7.606,14.143l8.372,11.347l3.178,9.453l11.578-0.46l5.659-7.931
	l12.131,0.966l5.679-9.368l3.815-16.787l10.401-2.339l9.185-11.282l-9.564-5.547l-7.118-7.046l7.282-14.082l19.311-8.602
	l15.907-8.04l-1.561-6.124l9.697-6.977l17.202-2.832l13.907,4.726l1.04,4.229l-6.676,2.091l-22.878,10.845l-9.067,6.281
	l-4.768,5.823l4.856,9.021l-2.226,9.852l9.685,3.282l5.789,5.456l16.269-2.109l17.586-3.666l18.148-0.796l10.477,4.755
	l-11.366,5.527l1.506,1.745l-1.506-1.746l-10.32,0.296l-10.85-1.653l-12.6,1.452l-12.644,2.786l0.868,5.745l6.346,3.554l3.677-1.26
	l-1.161,5.9l0,0l-1.921,7.677l-8.023,0.195l-7.941-7.471l-9.425,3.415l-4.914,6.28l-0.346,7.528l2.126,8.406l0,0l-13.8,3.243
	l-2.278,4.401l-9.644-0.126l-0.754-2.439l-9.98-1.689l-12.594,3.384l-15.606,4.625l-6.832,2.937l-4.722-3.185l-11.29-3.949
	l-5.622,2.739l-10.168,1.878l0.106-3.549l-10.105-2.33l-0.177-3.865L1897,335.8l7.2-7.2l2.978,1.086l2.444-3.772l-5.422-1.514
	l-1.2-2.8l2.961-3.257l0.339-5.143l-8.045,2.821l-3.511,2.759l-8.81,0.621l-2.869,3l-1.666,2.7l0.303,10.223l4.059,5.55h0
	l0.459,5.671l2.286,3.749l-6.79,4.93l-1.855-2.205l-8.358,0.544l-1.953,2.118l-8.309-0.282l-13.682,4.186l-8.757,14.713
	l-5.153,2.748l-0.001,0l-8.014,1.973l-8.746,2.019l-3.002,8.194l-23.282,7.798l-9.44-4.29l3.17,11.319l-16.793-2.573l-12.965,2.175
	l1.008,7.292l15.283,3.846l7.376,5.06l10.319,10.494l-1.904,19.923l-5.171,5.998v0l-16.162-0.331l-8.303,0.525l-10.641-1.708
	l-13.426,0.063l-12.237-1.804l-14.147,7.217l4.084,4.339l-0.504,7.122l0.44,3.371l1.999,3.591l0.222,4.237l-2.087,6.013
	l-0.709,4.042l-3.987,3.63l-0.796,6.546l2.391,3.789l4.474,0.922l0.939,6.149l-1.527,7.825l5.16-1.101l5.272,1.406l4.019-2.595
	l9.335,1.549l2.835,5.752l3.703,3.379l4.893,0.83l3.819-3.779l6.263-3.531l9.531,0.189l12.693-0.153l7.081-7.689l7.55-1.993
	l2.163-6.5l5.784-4.461l-3.9-5.715l3.854-8.14l6.146-5.544l0.892-3.364l12.813-2.113l9.476-6.66l-0.535-5.809l1.144-6.022
	l14.565-3.244l19.723,2.708l9.059-5.65l1.144-4.341l-5.42-1.269l-2.576-7.738l3.467-3.046l-2.943-3.755l0.412-2.826h0l-0.412,2.826
	l2.943,3.755l-3.467,3.046l2.576,7.738l5.42,1.269l-1.144,4.341l4.156-0.733l5.778-4.641l4.604-1.351l8.135,3.301l4.975,1.163
	l3.119,9.885l6.8,5.76l9.148,6.509l7.814,4.514l7.399,0.648l4.327,4.019l6.426,1.818l2.952,4.316l4.151,1.246l3.052,5.043
	l3.905,5.795l-2.173,2.136l-2.04,5.364l-0.039,3.057l4.169-0.771l5.341-8.577l4.177-0.593l1.187-5.218l-7.228-3.707l4.209-6.468
	l8.688,1.646l5.55,4.669l1.869-3.581l-1.036-1.868l-8.575-5.215l-7.342-3.025l-8.957-3.615l2.806-1.992l-2.437-2.21l-7.836,0.062
	l-11.128-8.059l-5.029-8.267l-9.377-5.036l-3.278-5.091l1.224-2.849l-0.553-4.964l8.13-3.549l7.96,1.457l-2.226,0.907h0
	l-0.357,0.162l-0.224,3.472l2.953,3.348l3.065-4.317l6.428,1.577l0.187,3.376l4.559,4.206l-2.018,0.747l8.409,7.36l9.146,2.972
	l5.8,3.6l9.4,3.7l0,0l4.321,1.985l2.803,3.265l2.093,0.775l-0.673-3.182l4.336-4.925l0,0l-4.336,4.925l0.673,3.182l1.683,1.576
	l-1.365,3.104l-0.845,6.823l0.87,4.765l5.539,3.358l0.2,2.2l1.7,0.7l0.677,2.848l5.123,5.703l3.9,4.597l1.75,6.653l3.75,8l8.2,4.35
	l6.642-0.125l-3.793-8.825l6.35-1.05l-2.95-5.1l9.25,2.65l-0.15-5.65l-4.95-2.9l-5.569-4.609L2034,498.6l-5.003-4.693l-2.234-5.973
	l1.877-2.194l5.29,5.15l5.569-0.01l5.081-1.63l-6.932-5.621l12.11-2.599l5.218,0.945l6.093,0.284l-0.136,2.064l3.146,4.658
	l8.344-5.386l4.266-3.093l11.874-0.551l1.82-2.45l-8.729-3.23l-1.188-3.845l-8.61-1.341l-10.187,3.146l10.187-3.146l8.61,1.341
	l-3.228-5.705l3.652-7.153l5.19-4.143l2.798-12.064l3.037,0.937l4.849-2.152l-0.232-2.579l7.743-7.391l3.711-5.507l9.266-1.231
	l0.688,3.729l15.544,2.528l2.896,2.29l-9.573,3.324l-1.766,1.917l10.927,2.927l-2.205,4.699l5.561,2.034l13.575-5.785l10.947-1.732
	l1.953-3.568l-10.2,0.6l-4.892-2.412l-0.584-6.22l8.613-3.728l9.362-0.527l6.653-3.235l7.984-0.8l8.977-1.612l0.265,2.186
	l-14.74,4.082l5.592,3.957l-8.298,8.364l-7.277,1.598l8.636,5.875l11.409,3.772l12.75,8.45l3.664,3.064l5.541,1.15l5.78,3.685
	l2.497,6.822l-1.491,4.273l-11.806,5.22l-8.608-0.891l-11.649,1.542l-14.345-3.868l-17.454-7.049l-16.544,0.213l-11.653,2.827
	l-12.021,6.486L2092.9,478.3l-4.2,7.6l-15.399,0.4l-11.093,9.564l6.339,4.779l-4.865,7.776l7.306,5.548l5.924,9.945l10.917-0.18
	l9.671,5.325l6.911-1.186l2.305-4.149l10.78,0.336l8.096,5.367l15.177-1.124l6.876-5.756l8.364,2.301l6.099-0.852l-3.787,3.756
	l3.677,4.535l-2.447,4.115l0.934,7.651l-0.188,0.349l-4.974,7.046l-3.562,8.146l-0.276,0.104l-1.43,2.532l-2.028,7.544l-2.645,4.674
	l0.683,0.567l-2.909,3.295l-4.92,2.519l-7.795-0.566l-8.014-2.363l-2.321,3.267l-2.724-4.96l-7.11-1.263l-8.819,0.825l-4.116,2.865
	l-7.699,3.168l-4.63-1.557l-9.929-2.955l-9.623-2.644l-13.305,0.165l-2.437-3.302l-9.936-1.173l-3.184-1.706l-3.723-0.042
	l-3.41-4.471l-13.528-2.046l-6.885,1.364l-7.205,4.686l-3.137,4.864l2.33,7.66l-4.793,4.599l-4.876,2.594l-10.653-4.972
	l-14.095-4.186l-8.977-1.941l-4.683-8.888l-13.27-4.469l-8.354-1.669l-4.199,0.86l-11.745-3.442l-3.803-1.563l-2.517-4.754
	l-5.172-0.17l-1.901-5.45l6.583-5.027l1.317-8.655l-3.462-2.484l0.067-4.626l5-4.9l-0.712-1.921l-8.482,3.681l0.293-5.06l-7-1.2
	l-10.89,4.036l-2.031,5.132l1.586,9.533l-2.354,8.247l-6.165,5.578l0.882,7.533l8.178,5.958l0.086,2.42l6.165,4.036l4.265,17.951h0
	l-4.265-17.951l-6.165-4.036l-0.086-2.42l-8.178-5.958l-0.882-7.533l6.165-5.578l2.354-8.247l-1.585-9.533l2.031-5.132l-6.839,0.607
	l-4.067-2.327l-10.686,0.077l-9.417,3.941l-5.044-1.485l-16.541,0.811l-16.948,1.783l-9.63,3.044l-6.313,4.126l-10.812,1.738
	l-9.613,5.464l-4.344-0.107l-10.358-2.208l-9.509,0.691l-6.029-4.245l-7.361-0.048l-3.143,6.141l-6.682,10.354l-7.416,4.134
	l-10.033,4.568l-6.432,6.756l-1.341,5.266l-3.799,8.604l2.499,12.441l-8.348,8.35l-5.014,2.664l-7.88,6.835l-9.299,1.105
	l-5.028,3.84l-0.183,0.14l-6.339,10.213l-6.661,3.645l-3.61,6.181l-0.237,5.327l-2.647,5.833l-3.367,1.611l-5.566,6.358
	l-3.438,7.056l0.645,3.384l-3.272,5.211l-3.841,2.725l-0.472,4.634l-0.43,4.226l5.271,4.319l2.585,4.753l-0.998,4.987l1.208,4.971
	l1.105,9.882l-1.242,9.415l-2.792,4.931l0.866,5.389l-2.376,5.135l-4.845,7.021l-4.399,1.899l4.989,3.56l4.124,7.786l-1.278,4.436
	l1.641,7.665l0.636,2.139l3.049,2.122l-0.058,1.522l2.296,2.819l4.21,0.661l5.339,4.181l2.908,1.638l1.463,2.203l1.135,4.418
	l2.496,1.987l2.56,1.296l3.889,3.914l4.386,5.917l1.225,7.391l1.75,3.653l5.209,5.357l7.199,4.028l2.694,0.742l6.734,6.452
	l8.52,5.471l9.086,7.611l10.307,4.767l2.62-0.088l1.932,0.263l9.902-3.668l6.943-2.886l11.846-1.746l6.411-0.115l6.977,1.955
	l4.55-0.102l8.914,2.84l9.011-2.901l5.56-3.429l15.678-5.854l8.051-2.133l-2.463-6.899l0.455-22.965l-2.014-2.06l-0.38-4.908
	l-3.473-3.502l-3.055-2.952l1.272-5.265l3.439-1.132l2.037-4.372l4.888-0.934l2.185-2.99l3.357-2.929l-3.357,2.929l-2.185,2.99
	l-4.888,0.934l-2.037,4.372l-3.439,1.132l-1.272,5.265l3.055,2.952l3.473,3.502l0.38,4.908l2.014,2.06l-0.455,22.965l2.463,6.899
	l8.264-1.167l8.825,0.005l7.514-0.124l7.08,6.589l3.292,7.238l5.354,6.255l7.999,0.219l3.845-2.241l3.795,0.526l10.382-3.599
	l2.572-7.077l4.756-9.648l2.895-0.09l5.956-5.853l3.791-0.166l0,0l-3.791,0.166l-5.956,5.853l-2.895,0.09l-4.756,9.648l-2.572,7.077
	l-0.115,2.764l2.561,1.434l2.032,4.481l4.562,1.696l3.908,6.611l-1.46,7.895l16.273,0.228l0,0l-16.273-0.228l-3.435,11.229
	l1.873,1.508l0,0l-2.015,7.415l-2.429,7.28l-2.183,3.197l-0.321,3.322l6.073,10.33l6.609,8.252l10.276,10.093l8.212,10.592
	l4.036-4.318l1.063-0.592l-1.063,0.592l-4.036,4.318l2.674,7.519l0,0l1.401,3.102l-0.951,1.944l5.01,6.327l2.047,6.694l3.034,9.661
	l-3.074,3.965l-0.537,2.078l2.456,6l2.664,6.067l2.99,3.575l0.523,5.668l-1.05,7.408l-3.208,4.45l-5.744,6.543l-2.384,4.098
	l-3.245,9.014l-0.52,4.292l-3.45,9.155l-1.384,8.793l0.941,6.288l4.813-1.902l5.986-1.703h0l-5.986,1.703l-4.812,1.902l0.607,7.672
	l8.137,9.762l2.183,6.278l5.257,11.997l5.161,8.262l3.891,4.122l1.28,5.454l0.224,11.964l3.351,15.399l2.465,7.245l2.208,9.736
	l3.913,7.303l7.431,7.555v0l7.179,12.992l0.015,0.027l5.025,8.471l6.549,9.359l0.261,7.675l-3.227,1.822l3.249,6.701l-0.056,5.863
	l1.329,2.688l0.472-1.386l4.307,4.464l3.38,0.183l4.231,3.566l4.549-0.24l6.178-3.78l8.537-1.583l10.314-3.948l4.14,0.523
	l6.059-1.22l10.838,1.927l4.95-1.903l6.078,1.478l1.291-2.776l5.098-0.521l10.451-3.88l7.552-4.55l7.058-5.999l11.302-10.318
	l5.671-7.165l2.79-5.138l4.238-5.08l1.954-1.446l6.824-5.05l2.587-4.514l1.181-8.309l2.499-7.28l0.858-5.263l-2.556-0.673
	l-0.857-4.213l4.386-3.698l12.026-5.413l8.249-3.38l4.18-3.557l1.487-4.16l-2.357-1.712l1.622-4.646l0.286-9.808l-1.767,0.5
	l-0.124-2.992l-1.973-5.865l-4.742-7.573l0.845-7.13l4.12-2.312l6.981-7.105l3.848-1.826l11.299-10.733l11.272-4.853l9.142-3.802
	l6.367-6.201l3.88-6.945l2.982-7.145l-1.759-4.898l-0.388-15.628l-1.236-8.775l0.411-9.963l-1.618-4.483l-3.67-2.187l-4.139-9.86
	l-3.492-6.269l0.655-4.777l-0.573-3.039l2.753-6.039l-0.3-2.6l-6.402-3.643l-0.593-5.667l4.617-12.322v0l4.027-3.302l1.952-6.654
	l3.211-4.035l1.418-7.046l3.748-0.733l2.469-4.172l7.004-3.993l-5.921-8.25l-0.119-36.428l0,0l0.119,36.428l5.921,8.25l2.258-2.368
	l2.306-5.273l10.944-12.114l9.322-7.606l14.958-9.929l10.008-8.095l11.76-13.641l8.538-11.197l8.582-14.656l6.182-12.771
	l4.815-11.17l2.818-10.81l2.111-3.612l-0.038-5.256l0.923-5.816l-0.227-2.765l-3.792,0.027l-4.732,3.423l-5.302,1.007l-4.609,1.486
	l-3.196,0.197l-5.694,0.351l-3.572,1.824l-4.959,0.658l-8.802,3.107l-10.885,1.185l-9.427,2.558l-4.965-0.033l-4.511-4.186
	l-1.96-4.135l-3.253-1.843l-4.294-2.736l5.705-2.393l0.315-4.152l-2.366-3.095l-4.917-3.008l-3.127-3.436l-5.419-5.77l-5.557-5.7
	l-13.65-9.446l-5.482-4.871l-2.755-9.179l-5.805-11.577l-5.473-3.696l-3.81-2.462l-3.671-11.939l-1.453-10.295l2.193-1.814
	l-3.225-9.811l-1.755-2.049l-11.647-8.976l-0.323-6.499l1.987-1.743l-8.973-11.07l-3.212-5.648l-3.693-5.437l-7.558-15.576
	l-6.139-10.053l-4.144-10.552l1.028-0.906l7.135,14.334l4.513,4.463l3.333,3.227l2.332-1.746l2.72-5.207l2.152-7.554l2.809-4.019v0
	l0.334,1.448l-1.238,3.991l-0.445,3.501l-1.554,5.489l4.979-0.048l5.1,6.868l6.09,8.064l3.905,7.439l2.92,2.233l2.779,5.184
	l-0.547,2.261l3.288,5.73l5.402,2.068l4.689,3.902l5.736,11.088l-0.426,5.928l1.157,6.95l6.623,9.531l4.46,1.642l6.917,6.881
	l2.821,8.149l5.33,8.386l5.165,3.583l0.771,3.989l3.016,3.012l1.298,4.267l0.444,4.361l-1.212,1.929l1.026,4.569l-2.001,0.486
	l2.874,4.111l1.957,7.396l1.635,2.95l-0.286,5.466l2.601,5.841l6.922,0.509l3.195-1.357l4.949,0.221l1.548-2.544l2.621-0.73
	l2.186-2.64l2.525-0.568l8.395-0.519l6.374-1.925l5.845-4.15l3,0.591l4.403-0.551l8.954-7.056l15.979-4.665l9.957-4.222l0.236-3.41
	l1.935-4.44l7.234-2.686l4.619-0.566l6.688-3.373l5.517,0.943l4.839-2.777l-0.05-4.039l3.916-2.518l6.22,0.081l2.287-2.11
	l0.975-4.872l6.246-3.737l4.601,0.033l0.943-1.229l-1.229-6.684l1.606-5.07l2.08-2.384l4.537,0.524l3.731-6.85l4.213-3.199
	l1.598-2.806l3.64-5.96l0.019-2.231l-3.58-1.267l-2.696-3.321l-4.513-5.733l-5.923-1.823l-7.335-1.307l-5.583-3.631l-4.483-6.831
	l-1.358-7.899l1.304-1.814l0.942-4.131l-1.237-0.868l-2.912,3.405l-6.318,6.163l-7.46,6.413l-6.85,6.761l-6.04-0.296l-8.269-0.261
	l-7.827,1.576l-0.369-2.743l-1.779,0.486l-1.899-3.819l2.171-5.883l-0.176-5.854l-3.026-3.135l-2.731,1.076l-2.694,5.246
	l0.662,7.277l-1.496-2.452l-1.332-3.279l-2.875-2.802l-1.266-3.359l0.996-3.331l-0.605-4.126l-6.815-4.203l-1.714-3.512l-4.92-2.284
	l-3.915-8.624l-3.221-7.543l0.892-2.282l-2.087-4.413l5.935,0.49l3.734-3.903l6.355,3.314l5.382-1.621l7.379,13.333l6.678,9.488
	l9.628,2.848l10.095,7.685l12.22,3.317l10.086-4.84l7.684-1.787l4.786,1.772l4.265,12.262l11.285,1.299l10.904,2.298l18.812,3.019
	l14.083-1.402l16.247-0.186l18.424-1.881l7.726,7.615l2.982,7.188l7.33,2.529l11.73,8.488l2.953,3.924l-4.808,3.615l13.063,12.12
	l7.048,1.199l14.553-5.986l1.939,9.365l-0.036,12.113l2.99,12.797l4.143,19.379l9.096,13.734l1.729,6.246l2.481,12.506l5.313,9.607
	l3.504,4.73l3.836,10.086l4.629,14.004l9.469,9.337l4.013-2.874l3.368-6.801l9.118-2.835l-3.044-3.296l4.552-7.627l5.175-0.484
	l0.045-16.989l4.238-9.5l-0.53-8.295l-2.082-13.006l2.998-7.628l4.671-0.528l9.007-3.583l4.985-2.464l0.016-4.6l9.964-6.546
	l7.518-6.308l11.192-11.766l14.391-6.731l5.338-5.917l-0.575-7.523l12.328-2.076l6.803,0.126l1.432-3.651l3.869,0.895l2.832,1.091
	l1.454-1.82l4.255,2.028l3.14-5.564l-0.91-4.122l9.211,0.4l4.178,5.821l1.903,4.814l0.577,5.094l2.857,5.213l7.097,8.157l5.85,1.282
	l-1.223,3.605l7.838,11.53l2.087,9.363l-3.447,12.393l6.196,2.345l5.61,0.891l11.364-7.128l6.588-5.015l4.325,8.282l1.807,12.633
	l3.259,11.968l4.06,5.181l-0.812,10.894l3.362,5.917l-3.074,7.66l0.964,7.423l-2.944,9.59L2782,807l1.897,5.555l1.641-5.878
	l4.845,4.743l5.314,5.645l1.71,4.953l3.951,3.837l2.205,4.239l-1.095,7.281l3.607,5.452l1.38,8.281l5.781,6.688l1.171,5.095
	l11.83,7.937l9.461,7.408l7.091-0.667l0.191-3.381l-3.933-8.843l-3.522-2.756l-0.73-5.919l-0.973-3.438l1.064-4.549l-0.573-6.734
	l-4.195-6.695l-5.906-6.037l-2.3-0.934l-5.181-5.19l-6.057-1.163l-5.581-5.727l-1.796-8.656l-4.058-9.127l-6.514-0.314l-0.686-7.238
	l3.252-8.833l5.398-14.606l0.791-10.998l8.807-0.059l-1.467,7.856l8.553-0.186l8.978,4.591l5.058,10.329l4.066,5.211l8.37,1.46
	l7.419,5.68l-2.81,6.775l3.631,6.413l12.469-9.311l8.158-8.336l11.452-6.438l8.34-6.585l1.351-17.592l-4.582-18.507l-6.076-8.031
	l-9.075-6.177l-9.352-13.067l-7.648-10.541l2.197-6.939l8.334-9.448l13.351-8.555l4.726-1.628l13.417,3.202l-2.368,3.868
	l2.622,7.258l5.542-0.586l3.414-10.561l10.581-1.533l13.975-5.009l5.657-4.97l3.458,3.246l6.113-4.443l11.269-1.148l13.909-8.416
	l13.752-9.229l9.286-11.934l8.1-13.124l7.302-10.825l5.588-0.898l2.54-7.925l1.537-8.145l-5.886-3.104l-2.393-5.334l6.277-2.731
	l0.162-7.428l-6.792-7.681l-6.086-9.164l-3.928-9.836l-10.763-5.495l5.133-6.999l9.725-5.016l4.672-5.399l14.158-2.793l-1.621-5.239
	l-6.467-0.266l-8.878-3.893l-11.207,7.14l-7.912-2.921l-0.335-4.489l-8.185-1.641l-5.27-6.762l5.1-4.666l9.807-0.481l6.161-6.457
	l11.29-6.953l8.717-3.53l5.282,5.24l-7.918,6.722l2.092,3.894l-5.314,4.634l10.768-2.73l7.362-4.673l13.98-2.907l4.719,2.681
	l5.836,1.09l0.655,1.634l-2.537,5.394l0.891,1.827l-2.36,1.174l-2.738,4.401l2.689,1.595l2.591,0.916l0.353,1.882l2.931-0.83
	l1.207-1.879l4.856,1.903l6.854,8.558l-7.427,1.684l4.418,10.409l-1.853,7.5l1.118,5.445l9.008-0.856l7.993-4.147l9.055-1.921
	l3.769-5.497l-0.079-11.521l-2.475-6.482l-8.632-11.798l-5.664-4.387l-3.979-1.626l1.167-1.105l0.313-4.329l4.34-2.686l6.66-1.644
	l3.77-2.956l1.777-1.764l5.171-2.21l-0.378-7.183l2.986-3.403l4.341-3.386l3.8,0.6l0,0l1.559-3.327l13.422-7.318l6.282,4.861
	l6.306-0.13l13.325-5.867l6.46-5.908l13.47-11.545l13.574-11.644l3.35-6.917l15.072-14.471l4.511-15.988l0.843-11.941l7.818-9.991
	l-0.339-8.508l-14.438-11.001l-10.969-0.649l-6.399,4.995l-9.713-2.223l-4.917-6.262l-15.755-1.26l38.323-23.585l32.394-19.519
	l32.894-2.964l30.576,1.719l12.389-4.913l15.544,1.518l-0.724,7.231l15.461-1.03l22.319-2.611l-8.257-6.132l25.026-16.762
	l25.816-3.395l8.192,12.297l25.364-10.983l6.005-8.238l12.151-0.843l-8.039,14.097l-17.976,7.979l-17.214,10.282l-17.863,12.59
	l-15.54,2.237l-0.522,4.673l-8.437,5.968l-4.808,13.869l5.582,22.221l4.282,14.589l3.698,6.89l14.414-9.316l2.998-10.16
	l14.908-2.439l3.47-11.418l17.487-5.108l-4.16-4.305l4.281-8.365l9.283-0.371l1.34-14.558l-11.389-2.241l-0.356-4.042l11.998-9.677
	l3.222-6.577l13.375,1.371l9.633-4.284l4.55,3.714l26.055-7.85l14.304,6.918l3.677-4.544L3522,281l15.301-7.026l8.892-1.165
	l27.95-7.528l18.639,2.178l2.581-2.648l-1.16-4.137l-4.621-2.694l-5.953-8.24l-9.017-5.323l12.959,0.733l12.856-4.394l0.072-0.054
	v-39.839l-14-4.364L3557.74,191.727z M1898.803,879.821L1898.803,879.821l14.548,0.102l0,0L1898.803,879.821z M2188.695,1001.96
	l-3.92,1.392l-3-0.082l3,0.082L2188.695,1001.96z M2281.101,494.678l-3.75,0.739L2281.101,494.678l2.954,2.935L2281.101,494.678z
	 M1990.725,441.731l-0.171,0.167l0,0L1990.725,441.731z M1994.18,441.87L1994.18,441.87l-0.028,0L1994.18,441.87z M2006.65,489.4
	L2006.65,489.4 M2338.758,520.85l-15.618,2.646l-14.217-1.724l-6.946-5.018l-9.482-2.083l-3.164-7.374l-0.267-4.952l3.667-2.337
	l1.72-3.503l1.739-7.766l8.236-0.805l-3.08-2.696l-4.659-0.468l-5.087-7.094l-5.259-5.266l0,0l-10.918-11.777l0.984-6.736
	l-9.089-9.49l9.939-10.323l9.695-1.648l4.558-5.93l9.329-2.097l11.579-4.397l8.501,2.441l10.007-0.484l1.781,6.184l-1.8,9.756
	l-8.735-1.493l-8.505,1.624l-0.384,7.311l-9.729-0.95l0.335,3.258l5.521,2.53l4.511,8.981l11.59,3.407l1.907,3.484l-2.458,4.167
	l0.561,2.438v0l3.122,6.479l1.021-7.328l8.05-2.551l2.866,5.72l7.285,6.002l-8.787,3.2l-9.429-2.455l-2.213,8.429l6.638,0.583
	l-2.568,6.847l7.799,3.385l-1.454,10.46l1.861,7.072L2338.758,520.85z"/>
<polygon fill="#FFFFFF" points="2851.255,107.431 2854.224,103.367 2828.878,97.687 2821.364,97.036 2813.149,98.16 
	2794.881,111.29 "/>
<polygon fill="#FFFFFF" points="2265.528,88.027 2276.361,90.398 2288.049,88.745 2289.444,87.104 2298.437,86.346 2311.862,85.027 
	2315.729,83.503 2300.898,81.311 2291.472,82.96 2285.728,85.354 2283.685,82.66 2268.491,82.781 2248.969,84.602 2271.225,84.906 
	"/>
<polygon fill="#FFFFFF" points="2733.629,96.235 2750.226,100.052 2778.079,102.938 2799.898,101.69 2802.366,92.699 
	2779.338,83.03 2759.909,77.996 2738.277,80.254 2712.311,87.085 2725.954,89.062 "/>
<polygon fill="#FFFFFF" points="3417.5,998.7 3424.487,998.764 3421.69,995.327 3419.674,994.967 3413.698,992.547 "/>
<polygon fill="#FFFFFF" points="3397.53,982.929 3396.9,986.9 3398.994,988.44 3405.126,989.452 3409.022,989.229 3407.385,986.601 
	3404.13,984.503 "/>
<polygon fill="#FFFFFF" points="3409.7,973.7 3406.3,973.7 3408.383,979.675 3415.794,988.343 3417.3,986.5 3413.3,981.7 "/>
<polygon fill="#FFFFFF" points="3396.9,970.7 3388.7,966.1 3384.1,963.7 3382.612,964.719 3386.361,968.048 3391.837,971.642 
	3399.674,975.883 3399.25,973.873 "/>
<polygon fill="#FFFFFF" points="3373.894,964.547 3375.884,963.978 3371.9,960.716 3365.928,956.493 3365.414,958.159 
	3369.52,962.269 "/>
<polygon fill="#FFFFFF" points="3066.947,974.482 3059.971,974.821 3051.363,977.069 3050.187,979.428 3051.2,981.4 
	3051.385,984.432 3059.759,981.56 3070.18,977.182 3073.859,974.473 3070.073,973.233 "/>
<polygon fill="#FFFFFF" points="1182.8,790.5 1191.15,789.4 1191.55,781.95 1189.45,781.6 1183.7,782.9 1183.9,786.85 1181,789.6 
	"/>
<polygon fill="#FFFFFF" points="3012.256,662.591 3018.278,646.557 3020.012,640.524 3015.45,637.545 3007.447,645.115 
	3001.562,654.937 3002.701,662.351 3007.971,670.794 "/>
<polygon fill="#FFFFFF" points="243.618,701.338 245.079,699.665 248.278,698.103 252.185,695.967 252.426,695.413 249.877,691.909 
	248.255,690.57 246.479,689.702 242.65,688.013 241.889,687.828 241.309,688.76 241.999,690.727 240.263,692.358 239.765,693.47 
	241.419,697.111 241.134,699.906 "/>
<polygon fill="#FFFFFF" points="237.929,681.325 234.374,680.375 233.395,681.232 233.483,681.857 234.633,682.67 236.356,684.776 
	239.707,684.06 240.543,682.859 "/>
<polygon fill="#FFFFFF" points="232.607,679.813 232.918,678.731 227.997,678.304 227.248,679.522 "/>
<polygon fill="#FFFFFF" points="217.573,674.709 217.962,675.108 219.233,677.375 222.714,677.727 223.43,677.856 223.972,677.278 
	221.084,673.973 220.248,673.33 "/>
<polygon fill="#FFFFFF" points="207.049,670.68 206.843,668.35 204.538,668.138 203.012,669.118 202.495,669.847 205.863,671.67 "/>
<polygon fill="#FFFFFF" points="262.872,312.334 253.79,315.888 255.336,320.572 260.449,323.153 270.437,319.341 279.089,314.589 
	274.852,311.486 268.213,310.81 "/>
<polygon fill="#FFFFFF" points="125.947,288.369 132.017,291.086 138.572,292.956 144.708,291.4 143.756,287.564 135.822,286.658 
	"/>
<polygon fill="#FFFFFF" points="89.356,254.578 83.184,252.675 82.589,256.441 84.969,257.322 93.786,256.742 97.594,258.555 
	105.206,260.731 112.781,258.614 113.606,257.525 103.675,256.189 95.589,253.55 "/>
<path fill="#FFFFFF" d="M155.753,224.733l-22.306,4.883l-14.053,4.183l12.656,5.811l4.197,4.022l14.645,2.397l14.144-1.122
	l7.886,2.206l3.047-2.208l10.611-2.178l6.141-0.114l-7.403,3.858l5.597,1.8l1.858,4.567l-7.619,3.103l-7.261-0.861l-8.067,4.825
	l-6.861-1.6l-8.092,0.731l-3.567,5.133l-8.153,5.581l-3.869,5.75l7.705,4.261l0.044,5.664l6.842,2.4l8.439,4.694l13.003-1.917
	l6.439,3.561l-1.808,3.667l0.861,5.953l6.139,0.008l9.997-4.003l3.74,4.986l2.696-3.588l6.531,5.072l5.414-3.636l3.225,1.72
	l11.531-3.031l-5.086,5.906l-1.725,7.583l-7.383,3.531l-2.234,2.003l-13.861,5.986l-4.93,4.1l-12.406,1.131l-10.658,5.469
	l-9.783,3.086l-10.939,4.672l1.566,1.68l17.161-2.856l8.317-3.345l10.147-3.405l9.333-2.789l6.864,0.769l11.7-4.275l3.161-4.695
	l15.611-5.164l2.478-4.428l10.008-3.05l10.75-4.186l9.45-7.184l-7.317-4.856l14.408-7.114l6.825-6.655l12.747-5.572l2.742,2.508
	l-10.628,3.078l-4.497,9.808l1.43,5.892l11.081-2.124l8.804-3.375l11.57-2.085l5.528-0.642l-2.062-6.947l11.099-2.117l11.888,4.26
	l19.667,4.594l13.844-0.853l17.492,3.569l9.575,1.898L422.5,305.5l11.719,2.878l15.898,0.245l9.602,0.646l5.389,9.442L478,326.8
	l2.828,8.722l8.814,3.189l5.497,3.762l0,0l0.211,5.152l12.097,7.26l1.754,8.062l12.795,4.258l-1.424,6.138l5.572,8.852l18.11,4.141
	l7.144,4.32l19.36,9.82l1.342,0.025l3.4,8.2l1.6,8.2l-2.474,2.64l-5.327-9.44l-14.461-3.397l-1.211,1.953l2.915,4.643l3.16,8.554
	l1.807,13.413l-1.216,9.075l-1.216,9.075l-3.907,9.424l3.191,7.664l0.348,8.576l-2.192,8.288l5.329,5.462l1.38,8.153l7.74,8.38
	l4.412,3.303l-0.355,2.316l8.329,13.902l9.702,10.047l1.215,5.483l2.551,1.614l9.289,0.986l3.578,2.705l5.611,0.502l1.093,2.869
	l4.666,1.197l6.48,5.75l1.682,5.109l4.062,8.996l4.632,7.993l3.71,6.557l3.687,6.244l5.868,2.769l7.698,7.134l-0.373,4.511
	l-3.71,3.735l-4.119-0.567l-0.729,0.755l5.894,5.806l6.168,2.42l2.522,2.606l1.321-1.287l6.874,4.462l4.766,3.099l1.517,5.419
	l-0.33,7.317l5.115,2.54l7.211,4.835l6.544,5.7l2.637,6.079l1.772,0.048l4.208-3.673l0.243-1.791l-3.627-4.465l-4.01-4.544
	l-4.822-0.331l-0.55-5.274l-2.778-4.686l-2.969-4.38l-3.318-9.302l-6.285-5.089l-2.13-3.541l-3.037-2.544l-2.007-6.45l-1.777,0.139
	l-1.319-3.435l-1.521-0.714l-1.648-2.354l-7.421-6.888l-3.429-4.122l-0.973-7.509l-1.654-4.799l1.602-4.06l5.707,2.755l3.339-0.436
	l7.232,3.966l-0.151,3.841l3.542,7.658l5.378,7.543l0.436,3.124l4.686,4.865l5.807,5.267l5.379,0.814l2.493,6.978l5.903,4.859
	l5.098,2.332l-1.524,6.181l1.839,2.443l8.583,4.083l4.865,6.234l10.055,7.811l8.813,9.94l3.353,5.047l0.903,3.979l3.373,4.49
	l-0.049,3.458l-2.299,2.594l1.029,2.852l-3.336,0.976l2.384,4.873l5.01,6.306l10.745,5.676l4.165,4.563l10.229,3.166l5.596,0.597
	l2.524,2.671l8.366,4.78l11.321,4.649l7.497,1.401l9.346,4.587l7.494,1.902l7.062,2.635l5.04-0.986l8.032-3.762l5.586-0.727
	l8.165,2.608l5.157,3.247l11.317,10.766l5.38,4.126l4.573,1.984l6.238,0.181l5.131,1.744l2.832,2.147l5.557,0.621l4.135,1.988
	l3.599,0.958l5.792,0.149l1.11-2.354l3.037,0.869l1.728,3.128l-0.757,0.707l-1.651-1.505l-1.11,1.546l5.01,4.516l4.215,3.143
	l2.201,3.371l4.674,4.034l3.46,3.15l-2.292,1.932l2.824,1.409l-1.324,3.15l-0.057,3.044l1.367,2.015l3.213,0.988l2.286,2.775
	l1.996-2.389l-0.643-2.907l2.623,1.787l0.657,2.925l3.442,1.282l3.935,1.966l2.773,2.394l0.363,2.209l-1.152,1.736l2.03,2.099
	l5.427,2.219v0l1.148,1.512l0.309-2.17l4.292-0.015l2.595,1.17l4.101,0.664l2.018,4.023l3.298,0.587l1.302-1.7l1.731,5.974
	l4.652-0.51l1.445-1.482l2.73-1.278l-4.77-5.428l0.98-2.081l2.182-0.349l4.039-2.512l2.027-3.479l4.376-0.637l4.982,2.78
	l1.867,3.304l2.534,0.685l-2.471,2.671l2.142,5.398l3.334,2.885l4.049,5.327l1.578,8.458l-2.144,2.625l2.256,9.148l-1.887,5.804
	l3.686,2.38l-3.827,5.246l-4.211,6.284l-4.961,0.671l-2.345,3.622l0.443,5.01l-3.731,0.75l1.357,3.104l-6.875,3.98l-5.478,2.145
	l0.697,4.081l-3.784,6.44l-1.84,6.23l-3.503,1.508l1.688,9.076l-2.03,2.819l5.99,4.382l3.822-4.644l2.163,4.367l-5.323,7.473
	l1.185,4.163l0,0l-1.185-4.163l-7.971,6.315l-3.113,7.004l4.846,9.538L988,951.868l7.125,4.048l7.769,6.527l3.147,7.365l4.09,4.557
	l9.448,19.911l9.86,18.45l8.469,13.123l-1.642,2.882l4.143,8.261l7.713,6.164l17.933,10.937l19.825,10.041l0.868,4.103l10.027,5.742
	l2.082,14.085l0.732,16.369l-3.127,22.357l-3.21,20.769l-1.802,19.345l-5.848,12.211l1.198,12.342l-2.986,8.25l2.303,14.983
	l-4.233,14.902l-6.914,15.997l-6.136,16.149l-4.213,0.325l0.825,11.266l2.88,9.758l-4.595,6.835l-3.409,18.526l-3.14,14.301
	l6.306,1.408l3.125-12.482l6.711,2.658l-5.226,20.716l-11.114-3.519l-3.404,16.609l-9.522,8.837l15.178,2.916l-10.562,7.726
	l-4.253,9.619l1.283,17.046l5.031,6.65l-2.834,5.86l3.132,6.334l12.44,5.723l11.448,6.963l11.281,3.25l4.235-0.232l1.612-9.341
	l9.023-3.613l4.815-2.46l8.897,0.075L1119,1414l-6.656-5.789l-3.23-10.386l4.098-4.683l9.127-3.946l6.499-11.723l11.811-5.641
	l3.441-8.972l-9.56-2.022l-9.835-7.322l2.867-7.499l7.838-5.123l9.447-0.028l2.365-5.354l1.47-10.06l8.03-6.218l9.208-3.104
	l-2.979-5.194l-5.475,3.153l-6.752-3.01l-1.395-9.937l3.859-2.616l9.616,3.641l10.247-1.38l5.998-3.519l-1.845-5.043l2.048-7.485
	l-2.102-5.964l10.985,1.007l20.056-2.082l14.827-5.363l9.609-12.823l0.508-4.885l-6.249-4.357l1.365-6.894l-12.696-8.565l0.684-5.22
	l6.092,5.531l6.782-0.321l9.244,4.294l5.412-1.072l7.382,2l11.294-5.558l4.328-6.284l6.616-5.718l4.56-9.512l6.799-4.677
	l8.793-7.932l11.095-17.6l6.989-5.503l2.269-4.88l1.868-10.102l-1.663-5.522l1.455-7.467l8.465-9.918l11.769-7.963l11.199-2.921
	l7.043-4.449l15.731-3.843l10.864,0.024l2.341-5.994l8.094-4.334l1.7-10.328l10.139-13.054l1.773-13.368l3.162-3.945l1.062-6.593
	l2.788-15.414l-0.71-18.737l2.794-7.357l2.5-0.195l7.403-8.669l6.371-11.305l14.096-13.914l5.088-6.529l3.982-16.532l-1.66-6.05
	l-3.394-12.733l-3.624-3.154l-8.551-0.401l-7.703-2.885l-12.771-11.203l-14.783-8.276l-14.94,0.39l-19.461-5.289l-11.628,3.082
	l1.64-5.536l-4.881-5.86l-16.609-6.107l-12.584-3.594l-7.595,6.562l-0.361-10.023l-17.676-1.57l-3.111-3.014l7.522-8.232
	l-0.27-6.903l-5.348-1.651l-5.609-17.488l-2.474-5.531l-3.406,0.473l-1.655-4.095l-10.588-8.441l-7.363-2.367l-3.396-1.1
	l-10.752-2.687l-8.085,0.722l-1.075,1.802l-11.981-2.003l-3.948-3.481l-5.359-4.878l-3.768-0.237l-0.281-5.149l-6.187-6.515
	l-6.566-3.678l-3.918-2.357l-5.212,0.226l-1.593-8.012l-7.582-4.917l-7.997-0.751l-3.416-4.721l8.492-2.953l-11.984,0.139
	l-12.387,0.603l-0.115,2.518l-5.61,3.124l-7.648-1.236l-5.726-4.478l-10.684,1.028l-8.979-0.088l-0.391-3.311l-6.497-5.576
	l-7.013-0.162l-3.589-7.027l-3.506,3.155l1.385,4.713l-12.453,4.065l0.505,7.57l3.101,3.519l-2.246,7.228l-4.311,0.649l-3.785-7.934
	l4.411-5.809l0.122-5.23l-3.262-4.538l5.87-1.167l0.284-2.363l1.941-3.367l-2.624-2.631l-3.543-0.613l-4.841,4.817l-3.896,2.236
	l-7.869,5.05l-7.824-0.835l-0.795,2.084l-6.301,0.19l-5.735,4.64l-1.843,8.45l-0.099,3.308l-4.118,1.064l-7.503,6.981l-5.167-0.318
	l-3.762-2.763l-3.264-3.009l-4.45-1.727l-5.576-0.341l0.373-0.984l-5.521-0.587l-3.413,2.988l-6.073,2.017l-4.254,2.526l-4.92,0.723
	l-2.749-2.457l-0.944,0.813l-3.99-0.449l0.205-2.119l-3.591-3.587l-4.695-4.268l-3.867-4.024l-2.533-5.433l0,0l-1.533-1.643
	l-0.465-2.703l2.046-2.557l-0.688-2.641l0.935-4.277l1.528-0.982l-0.252-4.502l-0.537-2.578l0.324-4.406l1.073-4.024l2.304-3.406
	l-1.02-3.659l0.509-2.232l0.86-0.96l-2.632-2.751l-3.636-1.532l-2.891-2.242l-3.052-1.869l-1.587-0.221l-4.567-1.387l-1.987,0.868
	l-2.616,0.234l-2.393-0.679l-3.186-0.518l-1.173,1.12l-3.217,1.106l-4.622,0.261l-4.646-0.902l-1.552,0.497l-0.928-0.815
	l-2.861,0.143l-2.193,1.758l-1.039-0.391l0,0l-2.933-1.277l-0.862,1.49l-3.26-1.809l1.982-3.464l1.806-0.318l1.964-2.653
	l1.159-5.053l-0.631-0.956l1.048-3.578l-0.875-1.547l1.619-4.325l0.167-2.72l-1.895-0.046L917.5,705.5l2.094-0.167l2.535,2.568
	l2.506-7.803l1.498-4.323l-1.843-1.742l2.378-6.089l5.374-5.945l0.339-4.816l-2.399-2.12l-6.065,0.847l-8.854-0.348l-10.575,2.32
	l-6.773,2.619l-1.729,2.923l-0.821,8.401l-2.383,5.833l-6.36,4.08l-6.294,1.715l-7.488,1.797l-7.625,1.01l-8.771,2.795l-4.133-4.183
	l-10.618-2.653l-3.912-4.923l-2.334-5.706l-6.638-7.445l-1.996-7.756l-3.101-4.877l-1.733-5.455l0.963-4.884l0.731-13.398
	l1.749-7.198l3.881-8.779h0l-1.9-3.4l-0.5-4.8l0.1-6.9l2.3-4.5l5.46-4.775l9.938-4.311l9.103-7.414l8.416-2.336l6.221-0.701
	l7.273,2.315l8.723-1.247l7.466,5.285l7.256,0.311l3.753-1.897l3.711,1.475l1.906-1.315l-2.123-1.976l0.163-4.055l-1.801-2.658
	l4.133-1.56l7.627-0.689l8.875,1.106L936.5,586.5l6.269,2.474l4.853,4.665l1.79,0.5L959.5,589.6l3.904,1.534l7.796,8.366l2.8,5.5
	l-2.053,6.638l1.501,3.912l4.652,7.65l5.3,8.6l3.8,2.3l1.579,4.387l4.921,1.213l2.99-1.262l2.495-6.106l0.436-3.89l0.315-6.742
	l-4.735-11.6l-0.056-4.321L990.7,598.7l-3.337-8.555l-1.767-6.945l1.541-7.105l4.713-5.928l5.637-4.761l10.977-6.49l1.429-3.356
	l5.063-3.674l4.994-0.641l6.573-5.865l10.344-2.965l6.357-7.422l-1.406-10.005l-1.038-3.46l-2.869-0.691l-0.429-9.515l-6.884-3.221
	l6.607,1.567l-2.134-6.344L1037,499l1.171,8.308l5.108,3.822l-3.092,6.805l0.91,0.397l5.628-7.986l3.207-3.886l-0.151-3.779
	l-2.482-1.78l-2.081-5.385l3.28,2.5l2.196,0.521l0.744,2.569l7.276-7.697l2.159-7.184l-2.943-0.459l3.044-2.772l-0.297,1.228
	l6.37-0.02l14-3l-2.963-1.895l-14.687,1.884l8.336-2.896l5.814-0.494l4.35-0.5l7.396-1.745l4.804,0.195l6.75-1.622l0.801-2.857
	l-3-2.222l1.05,3.65l-4.15-0.25l-3.3-5.3l0.101-5.303l1.694-2.249l5.293-5.938l10.562-2.959l10.275-3.452l10.679-4.845l-1.727-3.278
	l11.114-1.218l16.006-0.327l-17.362,8.269l0.383,8.464l7.593,0.734l11.175-7.203l9.918-4.046l22.148-5.951l12.37-6.552l-6.457-3.622
	l-0.695-7.253l-10.026,11.242l-16.526,1.448l-12.989-4.995l-3.263-7.545l-3.169-10.779l9.445-6.716l-8.853-4.903l-14.962,0.997
	L1114,407.5l-16.052,13.139l-8.494,1.643l11.51-9.232l14.425-13.235l12.749-4.432l8.373-7.174l10.357-0.692l15.008,0.072
	l21.389,2.105l16.906-1.623l12.583-8.215l16.479-3.554l7.177-3.51l7.258-3.759l-0.729-11.237l-4.018-3.771l-7.788-1.328
	l-3.963-8.462l-6.419-3.19l-15.946-2.586l-8.989-5.714l-13.301-5.64l4.021-6.28l-11.058-11.996l-13.024-12.755l-7.788-8.93
	l-6.616,4.649l-9.566,11.034l-14.48,5.552l-7.248-5.89l-9.133-1.563l-3.324-12.639l0.299-8.402l-17.833-0.758l-3.034-3.882
	l-12.314-5.797l-9.314-3.387l-8.283,2.627l-10.28-0.973l-17.145-2.721l-6.962,2.309l3.341,15.618l4.359,9.053l-11.801,10.48
	l12.146,7.525l6.791,8.495l0.818,6.684l-5.542,6.968l-11.331,7.01l-16.008,4.687l7.054,5.263l5.223,15.794l-5.411,10.281
	l-7.699,3.255l-14.879-9.495l-7.243-11.191l-3.112-10.052l1.634-8.661l-10.877-0.966l-16.513-0.577l-10.594-4.212l-12.53-2.753
	l-7.156-4.725l-9.997-3.801l-18.582-4.33l-13.993,1.976l-4.676-7.586l-4.504-9.364l-14.696-1.667l0.553-11.614l3.878-7.884
	l10.846-11.26l12.236-8.104l11.634-1.251l0.66-6.5l7.895-4.226l14.315-0.662l11.597-6.767l2.918-4.373l9.638-8.433l2.982-5.021
	l10.34,3.01l13.909-1.542l19.58-6.992l1.273-4.864l-7.051-5.354l7.442-5.331l-0.602-4.964l-13.422-4.962l-14.782-1.471
	l-14.212-0.767l-0.547,10.976l-7.294,8.631l-10.441,7.227l-9.673-6.747l2.978-7.417l-11.955-6.437l-13.364,7.837l0.044-10.227
	l-18.598-2.023l8.873-4.913l-13.585-11.274l-10.118-4.415l-13.188-1.604l-11.823,7.257l-0.802,11.051l11.672,4.041l10.713,6.167
	l-4.522,10.052l-8.044-0.269l-6.365,7.973l0.06-9.46l-15.496-3.393l-8.891,1.747l1.154,6.223l-14.587-0.24l-15.524,1.588
	l-17.668-4.509l-11.168,0.797l-10.049-5.432L739,202.5l-8,1l-12.172,0.461l-6.458,3.423l10.206,4.243l-10.878,5.059l-10.66-5.996
	l-8.518,1.749l-26.993,1.18l-18.076-2.145l14.069-4.963l-13.49-5.07l-9.795,0.644l-13.763-1.698l-23.402-3.666l-15.294-4.199
	l-12.112-0.578l-3.776,2.918l-12.286,1.64l-1.352-7.587l-13.315,6.778l-16.908-8.966l-6.911-1.066l-2.234,4.71l-7.462,2.336
	l-6.87-4.144l-16.367,2.492l-14.979,4.392l-14.854-1.221l-12.111,3.123l-8.778,4.171l-10.428-0.92l-15.742-4.81l-18.655-2.41l0,0
	l-10.865-1.399l-15.169-3.006L351.3,190.6l-7.7-1.3l-19.234-0.94L303.3,185.2l-10.2,1l-15.3-1.7l0.6-2.3l-16.9-0.6l-4.442,1.936
	l-7.236-4.514l-15.13-2.1l-15.389,5.33l-9.194-0.669l-18.956,4.44l-9.741,1.144l-10.217,4.753l-2.38,4.869l-12.622,4.556
	l-17.739,0.325l-5.597,5.242l13.742,3.161l9.593,4.264l7.113,5l12.3,3.808l8.119,6.195l-21.108,0.389l1.361-4.995H155.753z
	 M958.598,782.565l-1.657-2.058L958.598,782.565l2.951,0.666l0,0L958.598,782.565z M951.255,742.595l1.045-0.291l0,0
	L951.255,742.595l-1.283,2.389L951.255,742.595z M948.846,746.956l0.166-2.058h0L948.846,746.956l-3.49,2.754L948.846,746.956z
	 M919.846,750.854L919.846,750.854l-4.386,1.191L919.846,750.854z"/>
<polygon fill="#FFFFFF" points="3472.3,1052.1 3475.652,1056.478 3478.949,1055.163 3472.668,1049.418 "/>
<polygon fill="#FFFFFF" points="3466.791,1036.765 3466.999,1044.427 3468.432,1047.188 3470.512,1046.646 3473.2,1047.9 
	3471.577,1039.839 "/>
</svg>
